M48
; DRILL file {KiCad (5.1.9)-1} date 03/27/21 11:21:36
; FORMAT={-:-/ absolute / metric / decimal}
; #@! TF.CreationDate,2021-03-27T11:21:36+01:00
; #@! TF.GenerationSoftware,Kicad,Pcbnew,(5.1.9)-1
; #@! TF.FileFunction,Plated,1,2,PTH
FMAT,2
METRIC
T1C0.400
T2C0.800
T3C0.830
T4C0.900
T5C1.000
T6C1.100
T7C1.200
T8C1.370
T9C1.600
%
G90
G05
T1
X155.376Y-112.615
X168.059Y-114.157
X171.732Y-120.47
T2
X109.22Y-125.73
X116.84Y-125.73
X119.38Y-125.73
X127.0Y-125.73
X129.54Y-125.73
X132.08Y-90.17
X132.08Y-97.79
X132.62Y-62.23
X132.62Y-68.58
X134.62Y-62.23
X134.62Y-68.58
X135.89Y-90.17
X135.89Y-97.79
X137.16Y-125.73
X139.7Y-125.73
X147.32Y-66.58
X147.32Y-68.58
X147.32Y-125.73
X149.86Y-125.73
X151.13Y-99.06
X152.4Y-119.38
X153.67Y-77.47
X153.67Y-81.28
X153.67Y-85.09
X157.48Y-125.73
X158.75Y-99.06
X160.02Y-119.38
X161.29Y-77.47
X161.29Y-81.28
X161.29Y-85.09
X180.34Y-62.23
X180.34Y-67.31
X180.34Y-72.39
X180.34Y-128.27
X187.96Y-62.23
X187.96Y-67.31
X187.96Y-72.39
X187.96Y-128.27
X193.04Y-60.96
X194.31Y-73.66
X194.31Y-81.28
X194.31Y-83.82
X194.31Y-91.44
X194.31Y-93.98
X194.31Y-101.6
X194.31Y-104.14
X194.31Y-111.76
X194.31Y-114.3
X194.31Y-121.92
X200.66Y-60.96
T3
X164.782Y-77.47
X164.782Y-80.01
X164.782Y-82.55
X164.782Y-85.09
X164.782Y-87.63
X164.782Y-90.17
X164.782Y-92.71
X164.782Y-102.87
X164.782Y-105.41
X164.782Y-107.95
X164.782Y-110.49
X164.782Y-113.03
X164.782Y-115.57
X164.782Y-118.11
X173.037Y-77.47
X173.037Y-80.01
X173.037Y-82.55
X173.037Y-85.09
X173.037Y-87.63
X173.037Y-90.17
X173.037Y-92.71
X173.037Y-102.87
X173.037Y-105.41
X173.037Y-107.95
X173.037Y-110.49
X173.037Y-113.03
X173.037Y-115.57
X173.037Y-118.11
T4
X100.33Y-128.27
X102.83Y-125.77
X105.33Y-128.27
X145.67Y-60.96
X149.67Y-60.96
X151.13Y-91.44
X153.67Y-60.96
X153.67Y-68.58
X153.67Y-73.58
X153.67Y-91.44
X156.17Y-71.08
X158.75Y-128.27
X160.02Y-62.23
X161.25Y-125.77
X162.56Y-62.23
X163.75Y-128.27
X173.99Y-125.73
X173.99Y-128.27
X175.26Y-67.31
X175.26Y-72.31
X177.76Y-69.81
X203.2Y-71.12
X203.2Y-73.66
X203.2Y-81.28
X203.2Y-83.82
X203.2Y-91.44
X203.2Y-93.98
X203.2Y-101.6
X203.2Y-104.14
X203.2Y-111.76
X203.2Y-114.3
X203.2Y-121.92
X203.2Y-124.46
T5
X137.04Y-80.83
X138.43Y-77.47
X138.43Y-84.19
X145.15Y-77.47
X145.15Y-84.19
X146.54Y-80.83
X180.34Y-76.2
X180.34Y-78.74
X180.34Y-81.28
X180.34Y-83.82
X180.34Y-86.36
X180.34Y-88.9
X180.34Y-91.44
X180.34Y-93.98
X180.34Y-106.68
X180.34Y-109.22
X180.34Y-111.76
X180.34Y-114.3
X180.34Y-116.84
X180.34Y-119.38
X180.34Y-121.92
X180.34Y-124.46
X187.96Y-76.2
X187.96Y-78.74
X187.96Y-81.28
X187.96Y-83.82
X187.96Y-86.36
X187.96Y-88.9
X187.96Y-91.44
X187.96Y-93.98
X187.96Y-106.68
X187.96Y-109.22
X187.96Y-111.76
X187.96Y-114.3
X187.96Y-116.84
X187.96Y-119.38
X187.96Y-121.92
X187.96Y-124.46
T6
X181.61Y-53.34
X181.61Y-57.84
X188.11Y-53.34
X188.11Y-57.84
T7
X143.67Y-56.71
X143.67Y-62.71
X155.67Y-56.71
X155.67Y-62.71
T8
X138.43Y-62.24
X138.43Y-64.775
X138.43Y-67.31
T9
X168.91Y-58.42
X168.91Y-71.12
T0
M30
