%TF.GenerationSoftware,KiCad,Pcbnew,(5.1.9)-1*%
%TF.CreationDate,2021-03-27T11:21:30+01:00*%
%TF.ProjectId,alkoholmeter1,616c6b6f-686f-46c6-9d65-746572312e6b,rev?*%
%TF.SameCoordinates,Original*%
%TF.FileFunction,Soldermask,Bot*%
%TF.FilePolarity,Negative*%
%FSLAX46Y46*%
G04 Gerber Fmt 4.6, Leading zero omitted, Abs format (unit mm)*
G04 Created by KiCad (PCBNEW (5.1.9)-1) date 2021-03-27 11:21:30*
%MOMM*%
%LPD*%
G01*
G04 APERTURE LIST*
%ADD10C,2.500000*%
%ADD11C,2.000000*%
%ADD12C,1.700000*%
%ADD13O,3.200000X3.200000*%
%ADD14R,3.200000X3.200000*%
%ADD15R,2.000000X2.000000*%
%ADD16C,2.055000*%
%ADD17R,2.055000X2.055000*%
%ADD18C,1.930400*%
%ADD19R,1.930400X1.930400*%
%ADD20C,1.180000*%
%ADD21R,1.180000X1.180000*%
%ADD22C,1.620000*%
%ADD23O,1.600000X1.600000*%
%ADD24C,1.600000*%
%ADD25C,1.800000*%
%ADD26R,1.800000X1.800000*%
%ADD27R,1.600000X1.600000*%
G04 APERTURE END LIST*
D10*
%TO.C,H4*%
X194310000Y-128270000D03*
%TD*%
%TO.C,H3*%
X196850000Y-54610000D03*
%TD*%
%TO.C,H2*%
X127000000Y-116840000D03*
%TD*%
%TO.C,H1*%
X127000000Y-55880000D03*
%TD*%
D11*
%TO.C,SW2*%
X188110000Y-53340000D03*
X188110000Y-57840000D03*
X181610000Y-53340000D03*
X181610000Y-57840000D03*
%TD*%
D12*
%TO.C,SW1*%
X145670000Y-60960000D03*
X149670000Y-60960000D03*
X153670000Y-60960000D03*
D11*
X155670000Y-56710000D03*
X143670000Y-56710000D03*
X143670000Y-62710000D03*
X155670000Y-62710000D03*
%TD*%
D13*
%TO.C,D8*%
X168910000Y-58420000D03*
D14*
X168910000Y-71120000D03*
%TD*%
D11*
%TO.C,U?1*%
X145150000Y-77470000D03*
X145150000Y-84190000D03*
X138430000Y-84190000D03*
D15*
X138430000Y-77470000D03*
D11*
X146540000Y-80830000D03*
X137040000Y-80830000D03*
%TD*%
D16*
%TO.C,U5*%
X138430000Y-67310000D03*
X138430000Y-64775000D03*
D17*
X138430000Y-62240000D03*
%TD*%
D18*
%TO.C,U4*%
X187960000Y-106680000D03*
X187960000Y-109220000D03*
X187960000Y-111760000D03*
X187960000Y-114300000D03*
X187960000Y-116840000D03*
X187960000Y-119380000D03*
X187960000Y-121920000D03*
X187960000Y-124460000D03*
X180340000Y-116840000D03*
X180340000Y-119380000D03*
X180340000Y-114300000D03*
X180340000Y-111760000D03*
X180340000Y-124460000D03*
X180340000Y-121920000D03*
X180340000Y-109220000D03*
D19*
X180340000Y-106680000D03*
%TD*%
D18*
%TO.C,U3*%
X187960000Y-76200000D03*
X187960000Y-78740000D03*
X187960000Y-81280000D03*
X187960000Y-83820000D03*
X187960000Y-86360000D03*
X187960000Y-88900000D03*
X187960000Y-91440000D03*
X187960000Y-93980000D03*
X180340000Y-86360000D03*
X180340000Y-88900000D03*
X180340000Y-83820000D03*
X180340000Y-81280000D03*
X180340000Y-93980000D03*
X180340000Y-91440000D03*
X180340000Y-78740000D03*
D19*
X180340000Y-76200000D03*
%TD*%
D20*
%TO.C,U2*%
X164782500Y-92710000D03*
X164782500Y-90170000D03*
X164782500Y-87630000D03*
X164782500Y-85090000D03*
X164782500Y-82550000D03*
X164782500Y-80010000D03*
X164782500Y-77470000D03*
X173037500Y-77470000D03*
X173037500Y-80010000D03*
X173037500Y-82550000D03*
X173037500Y-85090000D03*
X173037500Y-87630000D03*
X173037500Y-90170000D03*
D21*
X173037500Y-92710000D03*
%TD*%
D20*
%TO.C,U1*%
X173037500Y-102870000D03*
X173037500Y-105410000D03*
X173037500Y-107950000D03*
X173037500Y-110490000D03*
X173037500Y-113030000D03*
X173037500Y-115570000D03*
X173037500Y-118110000D03*
X164782500Y-118110000D03*
X164782500Y-115570000D03*
X164782500Y-113030000D03*
X164782500Y-110490000D03*
X164782500Y-107950000D03*
X164782500Y-105410000D03*
D21*
X164782500Y-102870000D03*
%TD*%
D22*
%TO.C,RV4*%
X175260000Y-67310000D03*
X177760000Y-69810000D03*
X175260000Y-72310000D03*
%TD*%
%TO.C,RV3*%
X153670000Y-68580000D03*
X156170000Y-71080000D03*
X153670000Y-73580000D03*
%TD*%
%TO.C,RV2*%
X158750000Y-128270000D03*
X161250000Y-125770000D03*
X163750000Y-128270000D03*
%TD*%
%TO.C,RV1*%
X100330000Y-128270000D03*
X102830000Y-125770000D03*
X105330000Y-128270000D03*
%TD*%
D23*
%TO.C,R22*%
X151130000Y-99060000D03*
D24*
X158750000Y-99060000D03*
%TD*%
D23*
%TO.C,R21*%
X180340000Y-67310000D03*
D24*
X187960000Y-67310000D03*
%TD*%
D23*
%TO.C,R20*%
X194310000Y-121920000D03*
D24*
X194310000Y-114300000D03*
%TD*%
D23*
%TO.C,R19*%
X180340000Y-72390000D03*
D24*
X187960000Y-72390000D03*
%TD*%
D23*
%TO.C,R18*%
X194310000Y-111760000D03*
D24*
X194310000Y-104140000D03*
%TD*%
D23*
%TO.C,R17*%
X180340000Y-62230000D03*
D24*
X187960000Y-62230000D03*
%TD*%
D23*
%TO.C,R16*%
X194310000Y-101600000D03*
D24*
X194310000Y-93980000D03*
%TD*%
D23*
%TO.C,R15*%
X152400000Y-119380000D03*
D24*
X160020000Y-119380000D03*
%TD*%
D23*
%TO.C,R14*%
X194310000Y-91440000D03*
D24*
X194310000Y-83820000D03*
%TD*%
D23*
%TO.C,R13*%
X194310000Y-81280000D03*
D24*
X194310000Y-73660000D03*
%TD*%
D23*
%TO.C,R12*%
X153670000Y-85090000D03*
D24*
X161290000Y-85090000D03*
%TD*%
D23*
%TO.C,R11*%
X161290000Y-77470000D03*
D24*
X153670000Y-77470000D03*
%TD*%
D23*
%TO.C,R10*%
X153670000Y-81280000D03*
D24*
X161290000Y-81280000D03*
%TD*%
D23*
%TO.C,R9*%
X200660000Y-60960000D03*
D24*
X193040000Y-60960000D03*
%TD*%
D23*
%TO.C,R8*%
X132080000Y-90170000D03*
D24*
X132080000Y-97790000D03*
%TD*%
D23*
%TO.C,R7*%
X135890000Y-90170000D03*
D24*
X135890000Y-97790000D03*
%TD*%
D23*
%TO.C,R6*%
X180340000Y-128270000D03*
D24*
X187960000Y-128270000D03*
%TD*%
D23*
%TO.C,R5*%
X157480000Y-125730000D03*
D24*
X149860000Y-125730000D03*
%TD*%
D23*
%TO.C,R4*%
X147320000Y-125730000D03*
D24*
X139700000Y-125730000D03*
%TD*%
D23*
%TO.C,R3*%
X137160000Y-125730000D03*
D24*
X129540000Y-125730000D03*
%TD*%
D23*
%TO.C,R2*%
X127000000Y-125730000D03*
D24*
X119380000Y-125730000D03*
%TD*%
D23*
%TO.C,R1*%
X116840000Y-125730000D03*
D24*
X109220000Y-125730000D03*
%TD*%
D25*
%TO.C,D10*%
X151130000Y-91440000D03*
D26*
X153670000Y-91440000D03*
%TD*%
D25*
%TO.C,D9*%
X203200000Y-124460000D03*
D26*
X203200000Y-121920000D03*
%TD*%
D25*
%TO.C,D7*%
X203200000Y-114300000D03*
D26*
X203200000Y-111760000D03*
%TD*%
D25*
%TO.C,D6*%
X203200000Y-104140000D03*
D26*
X203200000Y-101600000D03*
%TD*%
D25*
%TO.C,D5*%
X203200000Y-93980000D03*
D26*
X203200000Y-91440000D03*
%TD*%
D25*
%TO.C,D4*%
X162560000Y-62230000D03*
D26*
X160020000Y-62230000D03*
%TD*%
D25*
%TO.C,D3*%
X203200000Y-83820000D03*
D26*
X203200000Y-81280000D03*
%TD*%
D25*
%TO.C,D2*%
X203200000Y-73660000D03*
D26*
X203200000Y-71120000D03*
%TD*%
D25*
%TO.C,D1*%
X173990000Y-125730000D03*
D26*
X173990000Y-128270000D03*
%TD*%
D24*
%TO.C,C3*%
X132620000Y-68580000D03*
D27*
X134620000Y-68580000D03*
%TD*%
D24*
%TO.C,C2*%
X147320000Y-66580000D03*
D27*
X147320000Y-68580000D03*
%TD*%
D24*
%TO.C,C1*%
X132620000Y-62230000D03*
D27*
X134620000Y-62230000D03*
%TD*%
M02*
