%TF.GenerationSoftware,KiCad,Pcbnew,(5.1.9)-1*%
%TF.CreationDate,2021-03-27T11:21:30+01:00*%
%TF.ProjectId,alkoholmeter1,616c6b6f-686f-46c6-9d65-746572312e6b,rev?*%
%TF.SameCoordinates,Original*%
%TF.FileFunction,Legend,Top*%
%TF.FilePolarity,Positive*%
%FSLAX46Y46*%
G04 Gerber Fmt 4.6, Leading zero omitted, Abs format (unit mm)*
G04 Created by KiCad (PCBNEW (5.1.9)-1) date 2021-03-27 11:21:30*
%MOMM*%
%LPD*%
G01*
G04 APERTURE LIST*
%ADD10C,0.120000*%
%ADD11C,0.200000*%
%ADD12C,0.152400*%
%ADD13C,0.127000*%
%ADD14C,0.150000*%
%ADD15C,0.254000*%
%ADD16C,0.015000*%
G04 APERTURE END LIST*
D10*
%TO.C,SW2*%
X182610000Y-58840000D02*
X187110000Y-58840000D01*
X181360000Y-54840000D02*
X181360000Y-56340000D01*
X187110000Y-52340000D02*
X182610000Y-52340000D01*
X188360000Y-56340000D02*
X188360000Y-54840000D01*
%TO.C,SW1*%
X156970000Y-64010000D02*
X155670000Y-64010000D01*
X156970000Y-62710000D02*
X156970000Y-64010000D01*
X144720000Y-56360000D02*
X154620000Y-56360000D01*
X154620000Y-63060000D02*
X144720000Y-63060000D01*
X156670000Y-57110000D02*
X156670000Y-62310000D01*
X142670000Y-62310000D02*
X142670000Y-57110000D01*
%TO.C,D8*%
X167070000Y-69390000D02*
X164790000Y-69390000D01*
X164790000Y-69390000D02*
X164790000Y-60150000D01*
X164790000Y-60150000D02*
X167070000Y-60150000D01*
X170750000Y-69390000D02*
X173030000Y-69390000D01*
X173030000Y-69390000D02*
X173030000Y-60150000D01*
X173030000Y-60150000D02*
X170750000Y-60150000D01*
X164790000Y-67920000D02*
X173030000Y-67920000D01*
X164790000Y-67800000D02*
X173030000Y-67800000D01*
X164790000Y-68040000D02*
X173030000Y-68040000D01*
%TO.C,U?1*%
X151415000Y-80830000D02*
G75*
G03*
X151415000Y-80830000I-9625000J0D01*
G01*
D11*
%TO.C,U5*%
X136880000Y-70110000D02*
X141580000Y-70110000D01*
X141580000Y-70110000D02*
X141580000Y-59440000D01*
X141580000Y-59440000D02*
X138430000Y-59440000D01*
D12*
%TO.C,U4*%
X187071000Y-125730000D02*
X187071000Y-105410000D01*
X181229000Y-105410000D02*
X181229000Y-125730000D01*
X187071000Y-125730000D02*
X181229000Y-125730000D01*
X187071000Y-105410000D02*
X185166000Y-105410000D01*
X181229000Y-105410000D02*
X183134000Y-105410000D01*
X185166000Y-105410000D02*
G75*
G02*
X183134000Y-105410000I-1016000J0D01*
G01*
%TO.C,U3*%
X187071000Y-95250000D02*
X187071000Y-74930000D01*
X181229000Y-74930000D02*
X181229000Y-95250000D01*
X187071000Y-95250000D02*
X181229000Y-95250000D01*
X187071000Y-74930000D02*
X185166000Y-74930000D01*
X181229000Y-74930000D02*
X183134000Y-74930000D01*
X185166000Y-74930000D02*
G75*
G02*
X183134000Y-74930000I-1016000J0D01*
G01*
D11*
%TO.C,U2*%
X174227500Y-92710000D02*
G75*
G03*
X174227500Y-92710000I-100000J0D01*
G01*
D13*
X172212000Y-94678500D02*
X165608000Y-94678500D01*
X172212000Y-75501500D02*
X165608000Y-75501500D01*
D11*
%TO.C,U1*%
X163792500Y-102870000D02*
G75*
G03*
X163792500Y-102870000I-100000J0D01*
G01*
D13*
X165608000Y-100901500D02*
X172212000Y-100901500D01*
X165608000Y-120078500D02*
X172212000Y-120078500D01*
D10*
%TO.C,RV4*%
X176185000Y-66540000D02*
X178880000Y-66540000D01*
X176185000Y-73080000D02*
X178880000Y-73080000D01*
X178880000Y-66540000D02*
X178880000Y-73080000D01*
X175139000Y-68376000D02*
X175139000Y-71245000D01*
X175139000Y-68690000D02*
X178880000Y-68690000D01*
X175139000Y-70930000D02*
X178880000Y-70930000D01*
X175139000Y-68690000D02*
X175139000Y-70930000D01*
X178880000Y-68690000D02*
X178880000Y-70930000D01*
%TO.C,RV3*%
X154595000Y-67810000D02*
X157290000Y-67810000D01*
X154595000Y-74350000D02*
X157290000Y-74350000D01*
X157290000Y-67810000D02*
X157290000Y-74350000D01*
X153549000Y-69646000D02*
X153549000Y-72515000D01*
X153549000Y-69960000D02*
X157290000Y-69960000D01*
X153549000Y-72200000D02*
X157290000Y-72200000D01*
X153549000Y-69960000D02*
X153549000Y-72200000D01*
X157290000Y-69960000D02*
X157290000Y-72200000D01*
%TO.C,RV2*%
X157980000Y-127345000D02*
X157980000Y-124650000D01*
X164520000Y-127345000D02*
X164520000Y-124650000D01*
X157980000Y-124650000D02*
X164520000Y-124650000D01*
X159816000Y-128391000D02*
X162685000Y-128391000D01*
X160130000Y-128391000D02*
X160130000Y-124650000D01*
X162370000Y-128391000D02*
X162370000Y-124650000D01*
X160130000Y-128391000D02*
X162370000Y-128391000D01*
X160130000Y-124650000D02*
X162370000Y-124650000D01*
%TO.C,RV1*%
X99560000Y-127345000D02*
X99560000Y-124650000D01*
X106100000Y-127345000D02*
X106100000Y-124650000D01*
X99560000Y-124650000D02*
X106100000Y-124650000D01*
X101396000Y-128391000D02*
X104265000Y-128391000D01*
X101710000Y-128391000D02*
X101710000Y-124650000D01*
X103950000Y-128391000D02*
X103950000Y-124650000D01*
X101710000Y-128391000D02*
X103950000Y-128391000D01*
X101710000Y-124650000D02*
X103950000Y-124650000D01*
%TO.C,R22*%
X158210000Y-100100000D02*
X158210000Y-100430000D01*
X158210000Y-100430000D02*
X151670000Y-100430000D01*
X151670000Y-100430000D02*
X151670000Y-100100000D01*
X158210000Y-98020000D02*
X158210000Y-97690000D01*
X158210000Y-97690000D02*
X151670000Y-97690000D01*
X151670000Y-97690000D02*
X151670000Y-98020000D01*
%TO.C,R21*%
X187420000Y-68350000D02*
X187420000Y-68680000D01*
X187420000Y-68680000D02*
X180880000Y-68680000D01*
X180880000Y-68680000D02*
X180880000Y-68350000D01*
X187420000Y-66270000D02*
X187420000Y-65940000D01*
X187420000Y-65940000D02*
X180880000Y-65940000D01*
X180880000Y-65940000D02*
X180880000Y-66270000D01*
%TO.C,R20*%
X195350000Y-114840000D02*
X195680000Y-114840000D01*
X195680000Y-114840000D02*
X195680000Y-121380000D01*
X195680000Y-121380000D02*
X195350000Y-121380000D01*
X193270000Y-114840000D02*
X192940000Y-114840000D01*
X192940000Y-114840000D02*
X192940000Y-121380000D01*
X192940000Y-121380000D02*
X193270000Y-121380000D01*
%TO.C,R19*%
X187420000Y-73430000D02*
X187420000Y-73760000D01*
X187420000Y-73760000D02*
X180880000Y-73760000D01*
X180880000Y-73760000D02*
X180880000Y-73430000D01*
X187420000Y-71350000D02*
X187420000Y-71020000D01*
X187420000Y-71020000D02*
X180880000Y-71020000D01*
X180880000Y-71020000D02*
X180880000Y-71350000D01*
%TO.C,R18*%
X195350000Y-104680000D02*
X195680000Y-104680000D01*
X195680000Y-104680000D02*
X195680000Y-111220000D01*
X195680000Y-111220000D02*
X195350000Y-111220000D01*
X193270000Y-104680000D02*
X192940000Y-104680000D01*
X192940000Y-104680000D02*
X192940000Y-111220000D01*
X192940000Y-111220000D02*
X193270000Y-111220000D01*
%TO.C,R17*%
X187420000Y-63270000D02*
X187420000Y-63600000D01*
X187420000Y-63600000D02*
X180880000Y-63600000D01*
X180880000Y-63600000D02*
X180880000Y-63270000D01*
X187420000Y-61190000D02*
X187420000Y-60860000D01*
X187420000Y-60860000D02*
X180880000Y-60860000D01*
X180880000Y-60860000D02*
X180880000Y-61190000D01*
%TO.C,R16*%
X195350000Y-94520000D02*
X195680000Y-94520000D01*
X195680000Y-94520000D02*
X195680000Y-101060000D01*
X195680000Y-101060000D02*
X195350000Y-101060000D01*
X193270000Y-94520000D02*
X192940000Y-94520000D01*
X192940000Y-94520000D02*
X192940000Y-101060000D01*
X192940000Y-101060000D02*
X193270000Y-101060000D01*
%TO.C,R15*%
X159480000Y-120420000D02*
X159480000Y-120750000D01*
X159480000Y-120750000D02*
X152940000Y-120750000D01*
X152940000Y-120750000D02*
X152940000Y-120420000D01*
X159480000Y-118340000D02*
X159480000Y-118010000D01*
X159480000Y-118010000D02*
X152940000Y-118010000D01*
X152940000Y-118010000D02*
X152940000Y-118340000D01*
%TO.C,R14*%
X195350000Y-84360000D02*
X195680000Y-84360000D01*
X195680000Y-84360000D02*
X195680000Y-90900000D01*
X195680000Y-90900000D02*
X195350000Y-90900000D01*
X193270000Y-84360000D02*
X192940000Y-84360000D01*
X192940000Y-84360000D02*
X192940000Y-90900000D01*
X192940000Y-90900000D02*
X193270000Y-90900000D01*
%TO.C,R13*%
X195350000Y-74200000D02*
X195680000Y-74200000D01*
X195680000Y-74200000D02*
X195680000Y-80740000D01*
X195680000Y-80740000D02*
X195350000Y-80740000D01*
X193270000Y-74200000D02*
X192940000Y-74200000D01*
X192940000Y-74200000D02*
X192940000Y-80740000D01*
X192940000Y-80740000D02*
X193270000Y-80740000D01*
%TO.C,R12*%
X160750000Y-86130000D02*
X160750000Y-86460000D01*
X160750000Y-86460000D02*
X154210000Y-86460000D01*
X154210000Y-86460000D02*
X154210000Y-86130000D01*
X160750000Y-84050000D02*
X160750000Y-83720000D01*
X160750000Y-83720000D02*
X154210000Y-83720000D01*
X154210000Y-83720000D02*
X154210000Y-84050000D01*
%TO.C,R11*%
X154210000Y-76430000D02*
X154210000Y-76100000D01*
X154210000Y-76100000D02*
X160750000Y-76100000D01*
X160750000Y-76100000D02*
X160750000Y-76430000D01*
X154210000Y-78510000D02*
X154210000Y-78840000D01*
X154210000Y-78840000D02*
X160750000Y-78840000D01*
X160750000Y-78840000D02*
X160750000Y-78510000D01*
%TO.C,R10*%
X160750000Y-82320000D02*
X160750000Y-82650000D01*
X160750000Y-82650000D02*
X154210000Y-82650000D01*
X154210000Y-82650000D02*
X154210000Y-82320000D01*
X160750000Y-80240000D02*
X160750000Y-79910000D01*
X160750000Y-79910000D02*
X154210000Y-79910000D01*
X154210000Y-79910000D02*
X154210000Y-80240000D01*
%TO.C,R9*%
X193580000Y-59920000D02*
X193580000Y-59590000D01*
X193580000Y-59590000D02*
X200120000Y-59590000D01*
X200120000Y-59590000D02*
X200120000Y-59920000D01*
X193580000Y-62000000D02*
X193580000Y-62330000D01*
X193580000Y-62330000D02*
X200120000Y-62330000D01*
X200120000Y-62330000D02*
X200120000Y-62000000D01*
%TO.C,R8*%
X131040000Y-97250000D02*
X130710000Y-97250000D01*
X130710000Y-97250000D02*
X130710000Y-90710000D01*
X130710000Y-90710000D02*
X131040000Y-90710000D01*
X133120000Y-97250000D02*
X133450000Y-97250000D01*
X133450000Y-97250000D02*
X133450000Y-90710000D01*
X133450000Y-90710000D02*
X133120000Y-90710000D01*
%TO.C,R7*%
X134850000Y-97250000D02*
X134520000Y-97250000D01*
X134520000Y-97250000D02*
X134520000Y-90710000D01*
X134520000Y-90710000D02*
X134850000Y-90710000D01*
X136930000Y-97250000D02*
X137260000Y-97250000D01*
X137260000Y-97250000D02*
X137260000Y-90710000D01*
X137260000Y-90710000D02*
X136930000Y-90710000D01*
%TO.C,R6*%
X187420000Y-129310000D02*
X187420000Y-129640000D01*
X187420000Y-129640000D02*
X180880000Y-129640000D01*
X180880000Y-129640000D02*
X180880000Y-129310000D01*
X187420000Y-127230000D02*
X187420000Y-126900000D01*
X187420000Y-126900000D02*
X180880000Y-126900000D01*
X180880000Y-126900000D02*
X180880000Y-127230000D01*
%TO.C,R5*%
X150400000Y-124690000D02*
X150400000Y-124360000D01*
X150400000Y-124360000D02*
X156940000Y-124360000D01*
X156940000Y-124360000D02*
X156940000Y-124690000D01*
X150400000Y-126770000D02*
X150400000Y-127100000D01*
X150400000Y-127100000D02*
X156940000Y-127100000D01*
X156940000Y-127100000D02*
X156940000Y-126770000D01*
%TO.C,R4*%
X140240000Y-124690000D02*
X140240000Y-124360000D01*
X140240000Y-124360000D02*
X146780000Y-124360000D01*
X146780000Y-124360000D02*
X146780000Y-124690000D01*
X140240000Y-126770000D02*
X140240000Y-127100000D01*
X140240000Y-127100000D02*
X146780000Y-127100000D01*
X146780000Y-127100000D02*
X146780000Y-126770000D01*
%TO.C,R3*%
X130080000Y-124690000D02*
X130080000Y-124360000D01*
X130080000Y-124360000D02*
X136620000Y-124360000D01*
X136620000Y-124360000D02*
X136620000Y-124690000D01*
X130080000Y-126770000D02*
X130080000Y-127100000D01*
X130080000Y-127100000D02*
X136620000Y-127100000D01*
X136620000Y-127100000D02*
X136620000Y-126770000D01*
%TO.C,R2*%
X119920000Y-124690000D02*
X119920000Y-124360000D01*
X119920000Y-124360000D02*
X126460000Y-124360000D01*
X126460000Y-124360000D02*
X126460000Y-124690000D01*
X119920000Y-126770000D02*
X119920000Y-127100000D01*
X119920000Y-127100000D02*
X126460000Y-127100000D01*
X126460000Y-127100000D02*
X126460000Y-126770000D01*
%TO.C,R1*%
X109760000Y-124690000D02*
X109760000Y-124360000D01*
X109760000Y-124360000D02*
X116300000Y-124360000D01*
X116300000Y-124360000D02*
X116300000Y-124690000D01*
X109760000Y-126770000D02*
X109760000Y-127100000D01*
X109760000Y-127100000D02*
X116300000Y-127100000D01*
X116300000Y-127100000D02*
X116300000Y-126770000D01*
%TO.C,JP2*%
X157610000Y-113300000D02*
X157610000Y-115300000D01*
X154810000Y-113300000D02*
X157610000Y-113300000D01*
X154810000Y-115300000D02*
X154810000Y-113300000D01*
X157610000Y-115300000D02*
X154810000Y-115300000D01*
%TO.C,JP1*%
X135110000Y-102600000D02*
X135110000Y-100600000D01*
X137910000Y-102600000D02*
X135110000Y-102600000D01*
X137910000Y-100600000D02*
X137910000Y-102600000D01*
X135110000Y-100600000D02*
X137910000Y-100600000D01*
%TO.C,D10*%
X154900000Y-91440000D02*
G75*
G03*
X154900000Y-91440000I-2500000J0D01*
G01*
X154960000Y-92985000D02*
X154960000Y-89895000D01*
X149410000Y-91440462D02*
G75*
G02*
X154960000Y-89895170I2990000J462D01*
G01*
X149410000Y-91439538D02*
G75*
G03*
X154960000Y-92984830I2990000J-462D01*
G01*
%TO.C,D9*%
X205700000Y-123190000D02*
G75*
G03*
X205700000Y-123190000I-2500000J0D01*
G01*
X204745000Y-120630000D02*
X201655000Y-120630000D01*
X203200462Y-126180000D02*
G75*
G02*
X201655170Y-120630000I-462J2990000D01*
G01*
X203199538Y-126180000D02*
G75*
G03*
X204744830Y-120630000I462J2990000D01*
G01*
%TO.C,D7*%
X205700000Y-113030000D02*
G75*
G03*
X205700000Y-113030000I-2500000J0D01*
G01*
X204745000Y-110470000D02*
X201655000Y-110470000D01*
X203200462Y-116020000D02*
G75*
G02*
X201655170Y-110470000I-462J2990000D01*
G01*
X203199538Y-116020000D02*
G75*
G03*
X204744830Y-110470000I462J2990000D01*
G01*
%TO.C,D6*%
X205700000Y-102870000D02*
G75*
G03*
X205700000Y-102870000I-2500000J0D01*
G01*
X204745000Y-100310000D02*
X201655000Y-100310000D01*
X203200462Y-105860000D02*
G75*
G02*
X201655170Y-100310000I-462J2990000D01*
G01*
X203199538Y-105860000D02*
G75*
G03*
X204744830Y-100310000I462J2990000D01*
G01*
%TO.C,D5*%
X205700000Y-92710000D02*
G75*
G03*
X205700000Y-92710000I-2500000J0D01*
G01*
X204745000Y-90150000D02*
X201655000Y-90150000D01*
X203200462Y-95700000D02*
G75*
G02*
X201655170Y-90150000I-462J2990000D01*
G01*
X203199538Y-95700000D02*
G75*
G03*
X204744830Y-90150000I462J2990000D01*
G01*
%TO.C,D4*%
X163790000Y-62230000D02*
G75*
G03*
X163790000Y-62230000I-2500000J0D01*
G01*
X158730000Y-60685000D02*
X158730000Y-63775000D01*
X164280000Y-62229538D02*
G75*
G02*
X158730000Y-63774830I-2990000J-462D01*
G01*
X164280000Y-62230462D02*
G75*
G03*
X158730000Y-60685170I-2990000J462D01*
G01*
%TO.C,D3*%
X205700000Y-82550000D02*
G75*
G03*
X205700000Y-82550000I-2500000J0D01*
G01*
X204745000Y-79990000D02*
X201655000Y-79990000D01*
X203200462Y-85540000D02*
G75*
G02*
X201655170Y-79990000I-462J2990000D01*
G01*
X203199538Y-85540000D02*
G75*
G03*
X204744830Y-79990000I462J2990000D01*
G01*
%TO.C,D2*%
X205700000Y-72390000D02*
G75*
G03*
X205700000Y-72390000I-2500000J0D01*
G01*
X204745000Y-69830000D02*
X201655000Y-69830000D01*
X203200462Y-75380000D02*
G75*
G02*
X201655170Y-69830000I-462J2990000D01*
G01*
X203199538Y-75380000D02*
G75*
G03*
X204744830Y-69830000I462J2990000D01*
G01*
%TO.C,D1*%
X176490000Y-127000000D02*
G75*
G03*
X176490000Y-127000000I-2500000J0D01*
G01*
X172445000Y-129560000D02*
X175535000Y-129560000D01*
X173989538Y-124010000D02*
G75*
G02*
X175534830Y-129560000I462J-2990000D01*
G01*
X173990462Y-124010000D02*
G75*
G03*
X172445170Y-129560000I-462J-2990000D01*
G01*
%TO.C,C3*%
X136240000Y-68580000D02*
G75*
G03*
X136240000Y-68580000I-2620000J0D01*
G01*
X133620000Y-67540000D02*
X133620000Y-66000000D01*
X133620000Y-71160000D02*
X133620000Y-69620000D01*
X133580000Y-67540000D02*
X133580000Y-66000000D01*
X133580000Y-71160000D02*
X133580000Y-69620000D01*
X133540000Y-71159000D02*
X133540000Y-69620000D01*
X133540000Y-67540000D02*
X133540000Y-66001000D01*
X133500000Y-71158000D02*
X133500000Y-69620000D01*
X133500000Y-67540000D02*
X133500000Y-66002000D01*
X133460000Y-71156000D02*
X133460000Y-69620000D01*
X133460000Y-67540000D02*
X133460000Y-66004000D01*
X133420000Y-71153000D02*
X133420000Y-69620000D01*
X133420000Y-67540000D02*
X133420000Y-66007000D01*
X133380000Y-71149000D02*
X133380000Y-69620000D01*
X133380000Y-67540000D02*
X133380000Y-66011000D01*
X133340000Y-71145000D02*
X133340000Y-69620000D01*
X133340000Y-67540000D02*
X133340000Y-66015000D01*
X133300000Y-71141000D02*
X133300000Y-69620000D01*
X133300000Y-67540000D02*
X133300000Y-66019000D01*
X133260000Y-71136000D02*
X133260000Y-69620000D01*
X133260000Y-67540000D02*
X133260000Y-66024000D01*
X133220000Y-71130000D02*
X133220000Y-69620000D01*
X133220000Y-67540000D02*
X133220000Y-66030000D01*
X133180000Y-71123000D02*
X133180000Y-69620000D01*
X133180000Y-67540000D02*
X133180000Y-66037000D01*
X133140000Y-71116000D02*
X133140000Y-69620000D01*
X133140000Y-67540000D02*
X133140000Y-66044000D01*
X133100000Y-71108000D02*
X133100000Y-69620000D01*
X133100000Y-67540000D02*
X133100000Y-66052000D01*
X133060000Y-71100000D02*
X133060000Y-69620000D01*
X133060000Y-67540000D02*
X133060000Y-66060000D01*
X133020000Y-71091000D02*
X133020000Y-69620000D01*
X133020000Y-67540000D02*
X133020000Y-66069000D01*
X132980000Y-71081000D02*
X132980000Y-69620000D01*
X132980000Y-67540000D02*
X132980000Y-66079000D01*
X132940000Y-71071000D02*
X132940000Y-69620000D01*
X132940000Y-67540000D02*
X132940000Y-66089000D01*
X132899000Y-71060000D02*
X132899000Y-69620000D01*
X132899000Y-67540000D02*
X132899000Y-66100000D01*
X132859000Y-71048000D02*
X132859000Y-69620000D01*
X132859000Y-67540000D02*
X132859000Y-66112000D01*
X132819000Y-71035000D02*
X132819000Y-69620000D01*
X132819000Y-67540000D02*
X132819000Y-66125000D01*
X132779000Y-71022000D02*
X132779000Y-69620000D01*
X132779000Y-67540000D02*
X132779000Y-66138000D01*
X132739000Y-71008000D02*
X132739000Y-69620000D01*
X132739000Y-67540000D02*
X132739000Y-66152000D01*
X132699000Y-70994000D02*
X132699000Y-69620000D01*
X132699000Y-67540000D02*
X132699000Y-66166000D01*
X132659000Y-70978000D02*
X132659000Y-69620000D01*
X132659000Y-67540000D02*
X132659000Y-66182000D01*
X132619000Y-70962000D02*
X132619000Y-69620000D01*
X132619000Y-67540000D02*
X132619000Y-66198000D01*
X132579000Y-70945000D02*
X132579000Y-69620000D01*
X132579000Y-67540000D02*
X132579000Y-66215000D01*
X132539000Y-70928000D02*
X132539000Y-69620000D01*
X132539000Y-67540000D02*
X132539000Y-66232000D01*
X132499000Y-70909000D02*
X132499000Y-69620000D01*
X132499000Y-67540000D02*
X132499000Y-66251000D01*
X132459000Y-70890000D02*
X132459000Y-69620000D01*
X132459000Y-67540000D02*
X132459000Y-66270000D01*
X132419000Y-70870000D02*
X132419000Y-69620000D01*
X132419000Y-67540000D02*
X132419000Y-66290000D01*
X132379000Y-70848000D02*
X132379000Y-69620000D01*
X132379000Y-67540000D02*
X132379000Y-66312000D01*
X132339000Y-70827000D02*
X132339000Y-69620000D01*
X132339000Y-67540000D02*
X132339000Y-66333000D01*
X132299000Y-70804000D02*
X132299000Y-69620000D01*
X132299000Y-67540000D02*
X132299000Y-66356000D01*
X132259000Y-70780000D02*
X132259000Y-69620000D01*
X132259000Y-67540000D02*
X132259000Y-66380000D01*
X132219000Y-70755000D02*
X132219000Y-69620000D01*
X132219000Y-67540000D02*
X132219000Y-66405000D01*
X132179000Y-70729000D02*
X132179000Y-69620000D01*
X132179000Y-67540000D02*
X132179000Y-66431000D01*
X132139000Y-70702000D02*
X132139000Y-69620000D01*
X132139000Y-67540000D02*
X132139000Y-66458000D01*
X132099000Y-70675000D02*
X132099000Y-69620000D01*
X132099000Y-67540000D02*
X132099000Y-66485000D01*
X132059000Y-70645000D02*
X132059000Y-69620000D01*
X132059000Y-67540000D02*
X132059000Y-66515000D01*
X132019000Y-70615000D02*
X132019000Y-69620000D01*
X132019000Y-67540000D02*
X132019000Y-66545000D01*
X131979000Y-70584000D02*
X131979000Y-69620000D01*
X131979000Y-67540000D02*
X131979000Y-66576000D01*
X131939000Y-70551000D02*
X131939000Y-69620000D01*
X131939000Y-67540000D02*
X131939000Y-66609000D01*
X131899000Y-70517000D02*
X131899000Y-69620000D01*
X131899000Y-67540000D02*
X131899000Y-66643000D01*
X131859000Y-70481000D02*
X131859000Y-69620000D01*
X131859000Y-67540000D02*
X131859000Y-66679000D01*
X131819000Y-70444000D02*
X131819000Y-69620000D01*
X131819000Y-67540000D02*
X131819000Y-66716000D01*
X131779000Y-70406000D02*
X131779000Y-69620000D01*
X131779000Y-67540000D02*
X131779000Y-66754000D01*
X131739000Y-70365000D02*
X131739000Y-69620000D01*
X131739000Y-67540000D02*
X131739000Y-66795000D01*
X131699000Y-70323000D02*
X131699000Y-69620000D01*
X131699000Y-67540000D02*
X131699000Y-66837000D01*
X131659000Y-70279000D02*
X131659000Y-69620000D01*
X131659000Y-67540000D02*
X131659000Y-66881000D01*
X131619000Y-70233000D02*
X131619000Y-69620000D01*
X131619000Y-67540000D02*
X131619000Y-66927000D01*
X131579000Y-70185000D02*
X131579000Y-66975000D01*
X131539000Y-70134000D02*
X131539000Y-67026000D01*
X131499000Y-70080000D02*
X131499000Y-67080000D01*
X131459000Y-70023000D02*
X131459000Y-67137000D01*
X131419000Y-69963000D02*
X131419000Y-67197000D01*
X131379000Y-69899000D02*
X131379000Y-67261000D01*
X131339000Y-69831000D02*
X131339000Y-67329000D01*
X131299000Y-69758000D02*
X131299000Y-67402000D01*
X131259000Y-69678000D02*
X131259000Y-67482000D01*
X131219000Y-69591000D02*
X131219000Y-67569000D01*
X131179000Y-69495000D02*
X131179000Y-67665000D01*
X131139000Y-69385000D02*
X131139000Y-67775000D01*
X131099000Y-69257000D02*
X131099000Y-67903000D01*
X131059000Y-69098000D02*
X131059000Y-68062000D01*
X131019000Y-68864000D02*
X131019000Y-68296000D01*
X136424775Y-70055000D02*
X135924775Y-70055000D01*
X136174775Y-70305000D02*
X136174775Y-69805000D01*
%TO.C,C2*%
X149940000Y-67580000D02*
G75*
G03*
X149940000Y-67580000I-2620000J0D01*
G01*
X148360000Y-67580000D02*
X149900000Y-67580000D01*
X144740000Y-67580000D02*
X146280000Y-67580000D01*
X148360000Y-67540000D02*
X149900000Y-67540000D01*
X144740000Y-67540000D02*
X146280000Y-67540000D01*
X144741000Y-67500000D02*
X146280000Y-67500000D01*
X148360000Y-67500000D02*
X149899000Y-67500000D01*
X144742000Y-67460000D02*
X146280000Y-67460000D01*
X148360000Y-67460000D02*
X149898000Y-67460000D01*
X144744000Y-67420000D02*
X146280000Y-67420000D01*
X148360000Y-67420000D02*
X149896000Y-67420000D01*
X144747000Y-67380000D02*
X146280000Y-67380000D01*
X148360000Y-67380000D02*
X149893000Y-67380000D01*
X144751000Y-67340000D02*
X146280000Y-67340000D01*
X148360000Y-67340000D02*
X149889000Y-67340000D01*
X144755000Y-67300000D02*
X146280000Y-67300000D01*
X148360000Y-67300000D02*
X149885000Y-67300000D01*
X144759000Y-67260000D02*
X146280000Y-67260000D01*
X148360000Y-67260000D02*
X149881000Y-67260000D01*
X144764000Y-67220000D02*
X146280000Y-67220000D01*
X148360000Y-67220000D02*
X149876000Y-67220000D01*
X144770000Y-67180000D02*
X146280000Y-67180000D01*
X148360000Y-67180000D02*
X149870000Y-67180000D01*
X144777000Y-67140000D02*
X146280000Y-67140000D01*
X148360000Y-67140000D02*
X149863000Y-67140000D01*
X144784000Y-67100000D02*
X146280000Y-67100000D01*
X148360000Y-67100000D02*
X149856000Y-67100000D01*
X144792000Y-67060000D02*
X146280000Y-67060000D01*
X148360000Y-67060000D02*
X149848000Y-67060000D01*
X144800000Y-67020000D02*
X146280000Y-67020000D01*
X148360000Y-67020000D02*
X149840000Y-67020000D01*
X144809000Y-66980000D02*
X146280000Y-66980000D01*
X148360000Y-66980000D02*
X149831000Y-66980000D01*
X144819000Y-66940000D02*
X146280000Y-66940000D01*
X148360000Y-66940000D02*
X149821000Y-66940000D01*
X144829000Y-66900000D02*
X146280000Y-66900000D01*
X148360000Y-66900000D02*
X149811000Y-66900000D01*
X144840000Y-66859000D02*
X146280000Y-66859000D01*
X148360000Y-66859000D02*
X149800000Y-66859000D01*
X144852000Y-66819000D02*
X146280000Y-66819000D01*
X148360000Y-66819000D02*
X149788000Y-66819000D01*
X144865000Y-66779000D02*
X146280000Y-66779000D01*
X148360000Y-66779000D02*
X149775000Y-66779000D01*
X144878000Y-66739000D02*
X146280000Y-66739000D01*
X148360000Y-66739000D02*
X149762000Y-66739000D01*
X144892000Y-66699000D02*
X146280000Y-66699000D01*
X148360000Y-66699000D02*
X149748000Y-66699000D01*
X144906000Y-66659000D02*
X146280000Y-66659000D01*
X148360000Y-66659000D02*
X149734000Y-66659000D01*
X144922000Y-66619000D02*
X146280000Y-66619000D01*
X148360000Y-66619000D02*
X149718000Y-66619000D01*
X144938000Y-66579000D02*
X146280000Y-66579000D01*
X148360000Y-66579000D02*
X149702000Y-66579000D01*
X144955000Y-66539000D02*
X146280000Y-66539000D01*
X148360000Y-66539000D02*
X149685000Y-66539000D01*
X144972000Y-66499000D02*
X146280000Y-66499000D01*
X148360000Y-66499000D02*
X149668000Y-66499000D01*
X144991000Y-66459000D02*
X146280000Y-66459000D01*
X148360000Y-66459000D02*
X149649000Y-66459000D01*
X145010000Y-66419000D02*
X146280000Y-66419000D01*
X148360000Y-66419000D02*
X149630000Y-66419000D01*
X145030000Y-66379000D02*
X146280000Y-66379000D01*
X148360000Y-66379000D02*
X149610000Y-66379000D01*
X145052000Y-66339000D02*
X146280000Y-66339000D01*
X148360000Y-66339000D02*
X149588000Y-66339000D01*
X145073000Y-66299000D02*
X146280000Y-66299000D01*
X148360000Y-66299000D02*
X149567000Y-66299000D01*
X145096000Y-66259000D02*
X146280000Y-66259000D01*
X148360000Y-66259000D02*
X149544000Y-66259000D01*
X145120000Y-66219000D02*
X146280000Y-66219000D01*
X148360000Y-66219000D02*
X149520000Y-66219000D01*
X145145000Y-66179000D02*
X146280000Y-66179000D01*
X148360000Y-66179000D02*
X149495000Y-66179000D01*
X145171000Y-66139000D02*
X146280000Y-66139000D01*
X148360000Y-66139000D02*
X149469000Y-66139000D01*
X145198000Y-66099000D02*
X146280000Y-66099000D01*
X148360000Y-66099000D02*
X149442000Y-66099000D01*
X145225000Y-66059000D02*
X146280000Y-66059000D01*
X148360000Y-66059000D02*
X149415000Y-66059000D01*
X145255000Y-66019000D02*
X146280000Y-66019000D01*
X148360000Y-66019000D02*
X149385000Y-66019000D01*
X145285000Y-65979000D02*
X146280000Y-65979000D01*
X148360000Y-65979000D02*
X149355000Y-65979000D01*
X145316000Y-65939000D02*
X146280000Y-65939000D01*
X148360000Y-65939000D02*
X149324000Y-65939000D01*
X145349000Y-65899000D02*
X146280000Y-65899000D01*
X148360000Y-65899000D02*
X149291000Y-65899000D01*
X145383000Y-65859000D02*
X146280000Y-65859000D01*
X148360000Y-65859000D02*
X149257000Y-65859000D01*
X145419000Y-65819000D02*
X146280000Y-65819000D01*
X148360000Y-65819000D02*
X149221000Y-65819000D01*
X145456000Y-65779000D02*
X146280000Y-65779000D01*
X148360000Y-65779000D02*
X149184000Y-65779000D01*
X145494000Y-65739000D02*
X146280000Y-65739000D01*
X148360000Y-65739000D02*
X149146000Y-65739000D01*
X145535000Y-65699000D02*
X146280000Y-65699000D01*
X148360000Y-65699000D02*
X149105000Y-65699000D01*
X145577000Y-65659000D02*
X146280000Y-65659000D01*
X148360000Y-65659000D02*
X149063000Y-65659000D01*
X145621000Y-65619000D02*
X146280000Y-65619000D01*
X148360000Y-65619000D02*
X149019000Y-65619000D01*
X145667000Y-65579000D02*
X146280000Y-65579000D01*
X148360000Y-65579000D02*
X148973000Y-65579000D01*
X145715000Y-65539000D02*
X148925000Y-65539000D01*
X145766000Y-65499000D02*
X148874000Y-65499000D01*
X145820000Y-65459000D02*
X148820000Y-65459000D01*
X145877000Y-65419000D02*
X148763000Y-65419000D01*
X145937000Y-65379000D02*
X148703000Y-65379000D01*
X146001000Y-65339000D02*
X148639000Y-65339000D01*
X146069000Y-65299000D02*
X148571000Y-65299000D01*
X146142000Y-65259000D02*
X148498000Y-65259000D01*
X146222000Y-65219000D02*
X148418000Y-65219000D01*
X146309000Y-65179000D02*
X148331000Y-65179000D01*
X146405000Y-65139000D02*
X148235000Y-65139000D01*
X146515000Y-65099000D02*
X148125000Y-65099000D01*
X146643000Y-65059000D02*
X147997000Y-65059000D01*
X146802000Y-65019000D02*
X147838000Y-65019000D01*
X147036000Y-64979000D02*
X147604000Y-64979000D01*
X145845000Y-70384775D02*
X145845000Y-69884775D01*
X145595000Y-70134775D02*
X146095000Y-70134775D01*
%TO.C,C1*%
X136240000Y-62230000D02*
G75*
G03*
X136240000Y-62230000I-2620000J0D01*
G01*
X133620000Y-61190000D02*
X133620000Y-59650000D01*
X133620000Y-64810000D02*
X133620000Y-63270000D01*
X133580000Y-61190000D02*
X133580000Y-59650000D01*
X133580000Y-64810000D02*
X133580000Y-63270000D01*
X133540000Y-64809000D02*
X133540000Y-63270000D01*
X133540000Y-61190000D02*
X133540000Y-59651000D01*
X133500000Y-64808000D02*
X133500000Y-63270000D01*
X133500000Y-61190000D02*
X133500000Y-59652000D01*
X133460000Y-64806000D02*
X133460000Y-63270000D01*
X133460000Y-61190000D02*
X133460000Y-59654000D01*
X133420000Y-64803000D02*
X133420000Y-63270000D01*
X133420000Y-61190000D02*
X133420000Y-59657000D01*
X133380000Y-64799000D02*
X133380000Y-63270000D01*
X133380000Y-61190000D02*
X133380000Y-59661000D01*
X133340000Y-64795000D02*
X133340000Y-63270000D01*
X133340000Y-61190000D02*
X133340000Y-59665000D01*
X133300000Y-64791000D02*
X133300000Y-63270000D01*
X133300000Y-61190000D02*
X133300000Y-59669000D01*
X133260000Y-64786000D02*
X133260000Y-63270000D01*
X133260000Y-61190000D02*
X133260000Y-59674000D01*
X133220000Y-64780000D02*
X133220000Y-63270000D01*
X133220000Y-61190000D02*
X133220000Y-59680000D01*
X133180000Y-64773000D02*
X133180000Y-63270000D01*
X133180000Y-61190000D02*
X133180000Y-59687000D01*
X133140000Y-64766000D02*
X133140000Y-63270000D01*
X133140000Y-61190000D02*
X133140000Y-59694000D01*
X133100000Y-64758000D02*
X133100000Y-63270000D01*
X133100000Y-61190000D02*
X133100000Y-59702000D01*
X133060000Y-64750000D02*
X133060000Y-63270000D01*
X133060000Y-61190000D02*
X133060000Y-59710000D01*
X133020000Y-64741000D02*
X133020000Y-63270000D01*
X133020000Y-61190000D02*
X133020000Y-59719000D01*
X132980000Y-64731000D02*
X132980000Y-63270000D01*
X132980000Y-61190000D02*
X132980000Y-59729000D01*
X132940000Y-64721000D02*
X132940000Y-63270000D01*
X132940000Y-61190000D02*
X132940000Y-59739000D01*
X132899000Y-64710000D02*
X132899000Y-63270000D01*
X132899000Y-61190000D02*
X132899000Y-59750000D01*
X132859000Y-64698000D02*
X132859000Y-63270000D01*
X132859000Y-61190000D02*
X132859000Y-59762000D01*
X132819000Y-64685000D02*
X132819000Y-63270000D01*
X132819000Y-61190000D02*
X132819000Y-59775000D01*
X132779000Y-64672000D02*
X132779000Y-63270000D01*
X132779000Y-61190000D02*
X132779000Y-59788000D01*
X132739000Y-64658000D02*
X132739000Y-63270000D01*
X132739000Y-61190000D02*
X132739000Y-59802000D01*
X132699000Y-64644000D02*
X132699000Y-63270000D01*
X132699000Y-61190000D02*
X132699000Y-59816000D01*
X132659000Y-64628000D02*
X132659000Y-63270000D01*
X132659000Y-61190000D02*
X132659000Y-59832000D01*
X132619000Y-64612000D02*
X132619000Y-63270000D01*
X132619000Y-61190000D02*
X132619000Y-59848000D01*
X132579000Y-64595000D02*
X132579000Y-63270000D01*
X132579000Y-61190000D02*
X132579000Y-59865000D01*
X132539000Y-64578000D02*
X132539000Y-63270000D01*
X132539000Y-61190000D02*
X132539000Y-59882000D01*
X132499000Y-64559000D02*
X132499000Y-63270000D01*
X132499000Y-61190000D02*
X132499000Y-59901000D01*
X132459000Y-64540000D02*
X132459000Y-63270000D01*
X132459000Y-61190000D02*
X132459000Y-59920000D01*
X132419000Y-64520000D02*
X132419000Y-63270000D01*
X132419000Y-61190000D02*
X132419000Y-59940000D01*
X132379000Y-64498000D02*
X132379000Y-63270000D01*
X132379000Y-61190000D02*
X132379000Y-59962000D01*
X132339000Y-64477000D02*
X132339000Y-63270000D01*
X132339000Y-61190000D02*
X132339000Y-59983000D01*
X132299000Y-64454000D02*
X132299000Y-63270000D01*
X132299000Y-61190000D02*
X132299000Y-60006000D01*
X132259000Y-64430000D02*
X132259000Y-63270000D01*
X132259000Y-61190000D02*
X132259000Y-60030000D01*
X132219000Y-64405000D02*
X132219000Y-63270000D01*
X132219000Y-61190000D02*
X132219000Y-60055000D01*
X132179000Y-64379000D02*
X132179000Y-63270000D01*
X132179000Y-61190000D02*
X132179000Y-60081000D01*
X132139000Y-64352000D02*
X132139000Y-63270000D01*
X132139000Y-61190000D02*
X132139000Y-60108000D01*
X132099000Y-64325000D02*
X132099000Y-63270000D01*
X132099000Y-61190000D02*
X132099000Y-60135000D01*
X132059000Y-64295000D02*
X132059000Y-63270000D01*
X132059000Y-61190000D02*
X132059000Y-60165000D01*
X132019000Y-64265000D02*
X132019000Y-63270000D01*
X132019000Y-61190000D02*
X132019000Y-60195000D01*
X131979000Y-64234000D02*
X131979000Y-63270000D01*
X131979000Y-61190000D02*
X131979000Y-60226000D01*
X131939000Y-64201000D02*
X131939000Y-63270000D01*
X131939000Y-61190000D02*
X131939000Y-60259000D01*
X131899000Y-64167000D02*
X131899000Y-63270000D01*
X131899000Y-61190000D02*
X131899000Y-60293000D01*
X131859000Y-64131000D02*
X131859000Y-63270000D01*
X131859000Y-61190000D02*
X131859000Y-60329000D01*
X131819000Y-64094000D02*
X131819000Y-63270000D01*
X131819000Y-61190000D02*
X131819000Y-60366000D01*
X131779000Y-64056000D02*
X131779000Y-63270000D01*
X131779000Y-61190000D02*
X131779000Y-60404000D01*
X131739000Y-64015000D02*
X131739000Y-63270000D01*
X131739000Y-61190000D02*
X131739000Y-60445000D01*
X131699000Y-63973000D02*
X131699000Y-63270000D01*
X131699000Y-61190000D02*
X131699000Y-60487000D01*
X131659000Y-63929000D02*
X131659000Y-63270000D01*
X131659000Y-61190000D02*
X131659000Y-60531000D01*
X131619000Y-63883000D02*
X131619000Y-63270000D01*
X131619000Y-61190000D02*
X131619000Y-60577000D01*
X131579000Y-63835000D02*
X131579000Y-60625000D01*
X131539000Y-63784000D02*
X131539000Y-60676000D01*
X131499000Y-63730000D02*
X131499000Y-60730000D01*
X131459000Y-63673000D02*
X131459000Y-60787000D01*
X131419000Y-63613000D02*
X131419000Y-60847000D01*
X131379000Y-63549000D02*
X131379000Y-60911000D01*
X131339000Y-63481000D02*
X131339000Y-60979000D01*
X131299000Y-63408000D02*
X131299000Y-61052000D01*
X131259000Y-63328000D02*
X131259000Y-61132000D01*
X131219000Y-63241000D02*
X131219000Y-61219000D01*
X131179000Y-63145000D02*
X131179000Y-61315000D01*
X131139000Y-63035000D02*
X131139000Y-61425000D01*
X131099000Y-62907000D02*
X131099000Y-61553000D01*
X131059000Y-62748000D02*
X131059000Y-61712000D01*
X131019000Y-62514000D02*
X131019000Y-61946000D01*
X136424775Y-63705000D02*
X135924775Y-63705000D01*
X136174775Y-63955000D02*
X136174775Y-63455000D01*
%TO.C,H4*%
D14*
X193548095Y-125222380D02*
X193548095Y-124222380D01*
X193548095Y-124698571D02*
X194119523Y-124698571D01*
X194119523Y-125222380D02*
X194119523Y-124222380D01*
X195024285Y-124555714D02*
X195024285Y-125222380D01*
X194786190Y-124174761D02*
X194548095Y-124889047D01*
X195167142Y-124889047D01*
%TO.C,H3*%
X196088095Y-51562380D02*
X196088095Y-50562380D01*
X196088095Y-51038571D02*
X196659523Y-51038571D01*
X196659523Y-51562380D02*
X196659523Y-50562380D01*
X197040476Y-50562380D02*
X197659523Y-50562380D01*
X197326190Y-50943333D01*
X197469047Y-50943333D01*
X197564285Y-50990952D01*
X197611904Y-51038571D01*
X197659523Y-51133809D01*
X197659523Y-51371904D01*
X197611904Y-51467142D01*
X197564285Y-51514761D01*
X197469047Y-51562380D01*
X197183333Y-51562380D01*
X197088095Y-51514761D01*
X197040476Y-51467142D01*
%TO.C,H2*%
X126238095Y-113792380D02*
X126238095Y-112792380D01*
X126238095Y-113268571D02*
X126809523Y-113268571D01*
X126809523Y-113792380D02*
X126809523Y-112792380D01*
X127238095Y-112887619D02*
X127285714Y-112840000D01*
X127380952Y-112792380D01*
X127619047Y-112792380D01*
X127714285Y-112840000D01*
X127761904Y-112887619D01*
X127809523Y-112982857D01*
X127809523Y-113078095D01*
X127761904Y-113220952D01*
X127190476Y-113792380D01*
X127809523Y-113792380D01*
%TO.C,H1*%
X126238095Y-52832380D02*
X126238095Y-51832380D01*
X126238095Y-52308571D02*
X126809523Y-52308571D01*
X126809523Y-52832380D02*
X126809523Y-51832380D01*
X127809523Y-52832380D02*
X127238095Y-52832380D01*
X127523809Y-52832380D02*
X127523809Y-51832380D01*
X127428571Y-51975238D01*
X127333333Y-52070476D01*
X127238095Y-52118095D01*
%TO.C,SW2*%
X183526666Y-51744761D02*
X183669523Y-51792380D01*
X183907619Y-51792380D01*
X184002857Y-51744761D01*
X184050476Y-51697142D01*
X184098095Y-51601904D01*
X184098095Y-51506666D01*
X184050476Y-51411428D01*
X184002857Y-51363809D01*
X183907619Y-51316190D01*
X183717142Y-51268571D01*
X183621904Y-51220952D01*
X183574285Y-51173333D01*
X183526666Y-51078095D01*
X183526666Y-50982857D01*
X183574285Y-50887619D01*
X183621904Y-50840000D01*
X183717142Y-50792380D01*
X183955238Y-50792380D01*
X184098095Y-50840000D01*
X184431428Y-50792380D02*
X184669523Y-51792380D01*
X184860000Y-51078095D01*
X185050476Y-51792380D01*
X185288571Y-50792380D01*
X185621904Y-50887619D02*
X185669523Y-50840000D01*
X185764761Y-50792380D01*
X186002857Y-50792380D01*
X186098095Y-50840000D01*
X186145714Y-50887619D01*
X186193333Y-50982857D01*
X186193333Y-51078095D01*
X186145714Y-51220952D01*
X185574285Y-51792380D01*
X186193333Y-51792380D01*
%TO.C,SW1*%
X148336666Y-64314761D02*
X148479523Y-64362380D01*
X148717619Y-64362380D01*
X148812857Y-64314761D01*
X148860476Y-64267142D01*
X148908095Y-64171904D01*
X148908095Y-64076666D01*
X148860476Y-63981428D01*
X148812857Y-63933809D01*
X148717619Y-63886190D01*
X148527142Y-63838571D01*
X148431904Y-63790952D01*
X148384285Y-63743333D01*
X148336666Y-63648095D01*
X148336666Y-63552857D01*
X148384285Y-63457619D01*
X148431904Y-63410000D01*
X148527142Y-63362380D01*
X148765238Y-63362380D01*
X148908095Y-63410000D01*
X149241428Y-63362380D02*
X149479523Y-64362380D01*
X149670000Y-63648095D01*
X149860476Y-64362380D01*
X150098571Y-63362380D01*
X151003333Y-64362380D02*
X150431904Y-64362380D01*
X150717619Y-64362380D02*
X150717619Y-63362380D01*
X150622380Y-63505238D01*
X150527142Y-63600476D01*
X150431904Y-63648095D01*
%TO.C,D8*%
X164242380Y-65508095D02*
X163242380Y-65508095D01*
X163242380Y-65270000D01*
X163290000Y-65127142D01*
X163385238Y-65031904D01*
X163480476Y-64984285D01*
X163670952Y-64936666D01*
X163813809Y-64936666D01*
X164004285Y-64984285D01*
X164099523Y-65031904D01*
X164194761Y-65127142D01*
X164242380Y-65270000D01*
X164242380Y-65508095D01*
X163670952Y-64365238D02*
X163623333Y-64460476D01*
X163575714Y-64508095D01*
X163480476Y-64555714D01*
X163432857Y-64555714D01*
X163337619Y-64508095D01*
X163290000Y-64460476D01*
X163242380Y-64365238D01*
X163242380Y-64174761D01*
X163290000Y-64079523D01*
X163337619Y-64031904D01*
X163432857Y-63984285D01*
X163480476Y-63984285D01*
X163575714Y-64031904D01*
X163623333Y-64079523D01*
X163670952Y-64174761D01*
X163670952Y-64365238D01*
X163718571Y-64460476D01*
X163766190Y-64508095D01*
X163861428Y-64555714D01*
X164051904Y-64555714D01*
X164147142Y-64508095D01*
X164194761Y-64460476D01*
X164242380Y-64365238D01*
X164242380Y-64174761D01*
X164194761Y-64079523D01*
X164147142Y-64031904D01*
X164051904Y-63984285D01*
X163861428Y-63984285D01*
X163766190Y-64031904D01*
X163718571Y-64079523D01*
X163670952Y-64174761D01*
X166762380Y-71381904D02*
X165762380Y-71381904D01*
X166762380Y-70810476D02*
X166190952Y-71239047D01*
X165762380Y-70810476D02*
X166333809Y-71381904D01*
%TO.C,U?1*%
X140599523Y-69282380D02*
X140599523Y-70091904D01*
X140647142Y-70187142D01*
X140694761Y-70234761D01*
X140790000Y-70282380D01*
X140980476Y-70282380D01*
X141075714Y-70234761D01*
X141123333Y-70187142D01*
X141170952Y-70091904D01*
X141170952Y-69282380D01*
X141790000Y-70187142D02*
X141837619Y-70234761D01*
X141790000Y-70282380D01*
X141742380Y-70234761D01*
X141790000Y-70187142D01*
X141790000Y-70282380D01*
X141599523Y-69330000D02*
X141694761Y-69282380D01*
X141932857Y-69282380D01*
X142028095Y-69330000D01*
X142075714Y-69425238D01*
X142075714Y-69520476D01*
X142028095Y-69615714D01*
X141980476Y-69663333D01*
X141885238Y-69710952D01*
X141837619Y-69758571D01*
X141790000Y-69853809D01*
X141790000Y-69901428D01*
X143028095Y-70282380D02*
X142456666Y-70282380D01*
X142742380Y-70282380D02*
X142742380Y-69282380D01*
X142647142Y-69425238D01*
X142551904Y-69520476D01*
X142456666Y-69568095D01*
%TO.C,U5*%
D15*
X137734523Y-63207619D02*
X138762619Y-63207619D01*
X138883571Y-63147142D01*
X138944047Y-63086666D01*
X139004523Y-62965714D01*
X139004523Y-62723809D01*
X138944047Y-62602857D01*
X138883571Y-62542380D01*
X138762619Y-62481904D01*
X137734523Y-62481904D01*
X137734523Y-61272380D02*
X137734523Y-61877142D01*
X138339285Y-61937619D01*
X138278809Y-61877142D01*
X138218333Y-61756190D01*
X138218333Y-61453809D01*
X138278809Y-61332857D01*
X138339285Y-61272380D01*
X138460238Y-61211904D01*
X138762619Y-61211904D01*
X138883571Y-61272380D01*
X138944047Y-61332857D01*
X139004523Y-61453809D01*
X139004523Y-61756190D01*
X138944047Y-61877142D01*
X138883571Y-61937619D01*
%TO.C,U4*%
D16*
X183856380Y-105155904D02*
X184665904Y-105155904D01*
X184761142Y-105108285D01*
X184808761Y-105060666D01*
X184856380Y-104965428D01*
X184856380Y-104774952D01*
X184808761Y-104679714D01*
X184761142Y-104632095D01*
X184665904Y-104584476D01*
X183856380Y-104584476D01*
X184189714Y-103679714D02*
X184856380Y-103679714D01*
X183808761Y-103917809D02*
X184523047Y-104155904D01*
X184523047Y-103536857D01*
%TO.C,U3*%
X183856380Y-74675904D02*
X184665904Y-74675904D01*
X184761142Y-74628285D01*
X184808761Y-74580666D01*
X184856380Y-74485428D01*
X184856380Y-74294952D01*
X184808761Y-74199714D01*
X184761142Y-74152095D01*
X184665904Y-74104476D01*
X183856380Y-74104476D01*
X183856380Y-73723523D02*
X183856380Y-73104476D01*
X184237333Y-73437809D01*
X184237333Y-73294952D01*
X184284952Y-73199714D01*
X184332571Y-73152095D01*
X184427809Y-73104476D01*
X184665904Y-73104476D01*
X184761142Y-73152095D01*
X184808761Y-73199714D01*
X184856380Y-73294952D01*
X184856380Y-73580666D01*
X184808761Y-73675904D01*
X184761142Y-73723523D01*
%TO.C,U2*%
X168865095Y-94942880D02*
X168865095Y-95752404D01*
X168912714Y-95847642D01*
X168960333Y-95895261D01*
X169055571Y-95942880D01*
X169246047Y-95942880D01*
X169341285Y-95895261D01*
X169388904Y-95847642D01*
X169436523Y-95752404D01*
X169436523Y-94942880D01*
X169865095Y-95038119D02*
X169912714Y-94990500D01*
X170007952Y-94942880D01*
X170246047Y-94942880D01*
X170341285Y-94990500D01*
X170388904Y-95038119D01*
X170436523Y-95133357D01*
X170436523Y-95228595D01*
X170388904Y-95371452D01*
X169817476Y-95942880D01*
X170436523Y-95942880D01*
%TO.C,U1*%
X167431095Y-99541880D02*
X167431095Y-100351404D01*
X167478714Y-100446642D01*
X167526333Y-100494261D01*
X167621571Y-100541880D01*
X167812047Y-100541880D01*
X167907285Y-100494261D01*
X167954904Y-100446642D01*
X168002523Y-100351404D01*
X168002523Y-99541880D01*
X169002523Y-100541880D02*
X168431095Y-100541880D01*
X168716809Y-100541880D02*
X168716809Y-99541880D01*
X168621571Y-99684738D01*
X168526333Y-99779976D01*
X168431095Y-99827595D01*
%TO.C,RV4*%
D14*
X174664761Y-65702380D02*
X174331428Y-65226190D01*
X174093333Y-65702380D02*
X174093333Y-64702380D01*
X174474285Y-64702380D01*
X174569523Y-64750000D01*
X174617142Y-64797619D01*
X174664761Y-64892857D01*
X174664761Y-65035714D01*
X174617142Y-65130952D01*
X174569523Y-65178571D01*
X174474285Y-65226190D01*
X174093333Y-65226190D01*
X174950476Y-64702380D02*
X175283809Y-65702380D01*
X175617142Y-64702380D01*
X176379047Y-65035714D02*
X176379047Y-65702380D01*
X176140952Y-64654761D02*
X175902857Y-65369047D01*
X176521904Y-65369047D01*
%TO.C,RV3*%
X153074761Y-66972380D02*
X152741428Y-66496190D01*
X152503333Y-66972380D02*
X152503333Y-65972380D01*
X152884285Y-65972380D01*
X152979523Y-66020000D01*
X153027142Y-66067619D01*
X153074761Y-66162857D01*
X153074761Y-66305714D01*
X153027142Y-66400952D01*
X152979523Y-66448571D01*
X152884285Y-66496190D01*
X152503333Y-66496190D01*
X153360476Y-65972380D02*
X153693809Y-66972380D01*
X154027142Y-65972380D01*
X154265238Y-65972380D02*
X154884285Y-65972380D01*
X154550952Y-66353333D01*
X154693809Y-66353333D01*
X154789047Y-66400952D01*
X154836666Y-66448571D01*
X154884285Y-66543809D01*
X154884285Y-66781904D01*
X154836666Y-66877142D01*
X154789047Y-66924761D01*
X154693809Y-66972380D01*
X154408095Y-66972380D01*
X154312857Y-66924761D01*
X154265238Y-66877142D01*
%TO.C,RV2*%
X157142380Y-128865238D02*
X156666190Y-129198571D01*
X157142380Y-129436666D02*
X156142380Y-129436666D01*
X156142380Y-129055714D01*
X156190000Y-128960476D01*
X156237619Y-128912857D01*
X156332857Y-128865238D01*
X156475714Y-128865238D01*
X156570952Y-128912857D01*
X156618571Y-128960476D01*
X156666190Y-129055714D01*
X156666190Y-129436666D01*
X156142380Y-128579523D02*
X157142380Y-128246190D01*
X156142380Y-127912857D01*
X156237619Y-127627142D02*
X156190000Y-127579523D01*
X156142380Y-127484285D01*
X156142380Y-127246190D01*
X156190000Y-127150952D01*
X156237619Y-127103333D01*
X156332857Y-127055714D01*
X156428095Y-127055714D01*
X156570952Y-127103333D01*
X157142380Y-127674761D01*
X157142380Y-127055714D01*
%TO.C,RV1*%
X98722380Y-128865238D02*
X98246190Y-129198571D01*
X98722380Y-129436666D02*
X97722380Y-129436666D01*
X97722380Y-129055714D01*
X97770000Y-128960476D01*
X97817619Y-128912857D01*
X97912857Y-128865238D01*
X98055714Y-128865238D01*
X98150952Y-128912857D01*
X98198571Y-128960476D01*
X98246190Y-129055714D01*
X98246190Y-129436666D01*
X97722380Y-128579523D02*
X98722380Y-128246190D01*
X97722380Y-127912857D01*
X98722380Y-127055714D02*
X98722380Y-127627142D01*
X98722380Y-127341428D02*
X97722380Y-127341428D01*
X97865238Y-127436666D01*
X97960476Y-127531904D01*
X98008095Y-127627142D01*
%TO.C,R22*%
X154297142Y-101882380D02*
X153963809Y-101406190D01*
X153725714Y-101882380D02*
X153725714Y-100882380D01*
X154106666Y-100882380D01*
X154201904Y-100930000D01*
X154249523Y-100977619D01*
X154297142Y-101072857D01*
X154297142Y-101215714D01*
X154249523Y-101310952D01*
X154201904Y-101358571D01*
X154106666Y-101406190D01*
X153725714Y-101406190D01*
X154678095Y-100977619D02*
X154725714Y-100930000D01*
X154820952Y-100882380D01*
X155059047Y-100882380D01*
X155154285Y-100930000D01*
X155201904Y-100977619D01*
X155249523Y-101072857D01*
X155249523Y-101168095D01*
X155201904Y-101310952D01*
X154630476Y-101882380D01*
X155249523Y-101882380D01*
X155630476Y-100977619D02*
X155678095Y-100930000D01*
X155773333Y-100882380D01*
X156011428Y-100882380D01*
X156106666Y-100930000D01*
X156154285Y-100977619D01*
X156201904Y-101072857D01*
X156201904Y-101168095D01*
X156154285Y-101310952D01*
X155582857Y-101882380D01*
X156201904Y-101882380D01*
%TO.C,R21*%
X183507142Y-70132380D02*
X183173809Y-69656190D01*
X182935714Y-70132380D02*
X182935714Y-69132380D01*
X183316666Y-69132380D01*
X183411904Y-69180000D01*
X183459523Y-69227619D01*
X183507142Y-69322857D01*
X183507142Y-69465714D01*
X183459523Y-69560952D01*
X183411904Y-69608571D01*
X183316666Y-69656190D01*
X182935714Y-69656190D01*
X183888095Y-69227619D02*
X183935714Y-69180000D01*
X184030952Y-69132380D01*
X184269047Y-69132380D01*
X184364285Y-69180000D01*
X184411904Y-69227619D01*
X184459523Y-69322857D01*
X184459523Y-69418095D01*
X184411904Y-69560952D01*
X183840476Y-70132380D01*
X184459523Y-70132380D01*
X185411904Y-70132380D02*
X184840476Y-70132380D01*
X185126190Y-70132380D02*
X185126190Y-69132380D01*
X185030952Y-69275238D01*
X184935714Y-69370476D01*
X184840476Y-69418095D01*
%TO.C,R20*%
X197132380Y-118752857D02*
X196656190Y-119086190D01*
X197132380Y-119324285D02*
X196132380Y-119324285D01*
X196132380Y-118943333D01*
X196180000Y-118848095D01*
X196227619Y-118800476D01*
X196322857Y-118752857D01*
X196465714Y-118752857D01*
X196560952Y-118800476D01*
X196608571Y-118848095D01*
X196656190Y-118943333D01*
X196656190Y-119324285D01*
X196227619Y-118371904D02*
X196180000Y-118324285D01*
X196132380Y-118229047D01*
X196132380Y-117990952D01*
X196180000Y-117895714D01*
X196227619Y-117848095D01*
X196322857Y-117800476D01*
X196418095Y-117800476D01*
X196560952Y-117848095D01*
X197132380Y-118419523D01*
X197132380Y-117800476D01*
X196132380Y-117181428D02*
X196132380Y-117086190D01*
X196180000Y-116990952D01*
X196227619Y-116943333D01*
X196322857Y-116895714D01*
X196513333Y-116848095D01*
X196751428Y-116848095D01*
X196941904Y-116895714D01*
X197037142Y-116943333D01*
X197084761Y-116990952D01*
X197132380Y-117086190D01*
X197132380Y-117181428D01*
X197084761Y-117276666D01*
X197037142Y-117324285D01*
X196941904Y-117371904D01*
X196751428Y-117419523D01*
X196513333Y-117419523D01*
X196322857Y-117371904D01*
X196227619Y-117324285D01*
X196180000Y-117276666D01*
X196132380Y-117181428D01*
%TO.C,R19*%
X183507142Y-75212380D02*
X183173809Y-74736190D01*
X182935714Y-75212380D02*
X182935714Y-74212380D01*
X183316666Y-74212380D01*
X183411904Y-74260000D01*
X183459523Y-74307619D01*
X183507142Y-74402857D01*
X183507142Y-74545714D01*
X183459523Y-74640952D01*
X183411904Y-74688571D01*
X183316666Y-74736190D01*
X182935714Y-74736190D01*
X184459523Y-75212380D02*
X183888095Y-75212380D01*
X184173809Y-75212380D02*
X184173809Y-74212380D01*
X184078571Y-74355238D01*
X183983333Y-74450476D01*
X183888095Y-74498095D01*
X184935714Y-75212380D02*
X185126190Y-75212380D01*
X185221428Y-75164761D01*
X185269047Y-75117142D01*
X185364285Y-74974285D01*
X185411904Y-74783809D01*
X185411904Y-74402857D01*
X185364285Y-74307619D01*
X185316666Y-74260000D01*
X185221428Y-74212380D01*
X185030952Y-74212380D01*
X184935714Y-74260000D01*
X184888095Y-74307619D01*
X184840476Y-74402857D01*
X184840476Y-74640952D01*
X184888095Y-74736190D01*
X184935714Y-74783809D01*
X185030952Y-74831428D01*
X185221428Y-74831428D01*
X185316666Y-74783809D01*
X185364285Y-74736190D01*
X185411904Y-74640952D01*
%TO.C,R18*%
X197132380Y-108592857D02*
X196656190Y-108926190D01*
X197132380Y-109164285D02*
X196132380Y-109164285D01*
X196132380Y-108783333D01*
X196180000Y-108688095D01*
X196227619Y-108640476D01*
X196322857Y-108592857D01*
X196465714Y-108592857D01*
X196560952Y-108640476D01*
X196608571Y-108688095D01*
X196656190Y-108783333D01*
X196656190Y-109164285D01*
X197132380Y-107640476D02*
X197132380Y-108211904D01*
X197132380Y-107926190D02*
X196132380Y-107926190D01*
X196275238Y-108021428D01*
X196370476Y-108116666D01*
X196418095Y-108211904D01*
X196560952Y-107069047D02*
X196513333Y-107164285D01*
X196465714Y-107211904D01*
X196370476Y-107259523D01*
X196322857Y-107259523D01*
X196227619Y-107211904D01*
X196180000Y-107164285D01*
X196132380Y-107069047D01*
X196132380Y-106878571D01*
X196180000Y-106783333D01*
X196227619Y-106735714D01*
X196322857Y-106688095D01*
X196370476Y-106688095D01*
X196465714Y-106735714D01*
X196513333Y-106783333D01*
X196560952Y-106878571D01*
X196560952Y-107069047D01*
X196608571Y-107164285D01*
X196656190Y-107211904D01*
X196751428Y-107259523D01*
X196941904Y-107259523D01*
X197037142Y-107211904D01*
X197084761Y-107164285D01*
X197132380Y-107069047D01*
X197132380Y-106878571D01*
X197084761Y-106783333D01*
X197037142Y-106735714D01*
X196941904Y-106688095D01*
X196751428Y-106688095D01*
X196656190Y-106735714D01*
X196608571Y-106783333D01*
X196560952Y-106878571D01*
%TO.C,R17*%
X183507142Y-65052380D02*
X183173809Y-64576190D01*
X182935714Y-65052380D02*
X182935714Y-64052380D01*
X183316666Y-64052380D01*
X183411904Y-64100000D01*
X183459523Y-64147619D01*
X183507142Y-64242857D01*
X183507142Y-64385714D01*
X183459523Y-64480952D01*
X183411904Y-64528571D01*
X183316666Y-64576190D01*
X182935714Y-64576190D01*
X184459523Y-65052380D02*
X183888095Y-65052380D01*
X184173809Y-65052380D02*
X184173809Y-64052380D01*
X184078571Y-64195238D01*
X183983333Y-64290476D01*
X183888095Y-64338095D01*
X184792857Y-64052380D02*
X185459523Y-64052380D01*
X185030952Y-65052380D01*
%TO.C,R16*%
X197132380Y-98432857D02*
X196656190Y-98766190D01*
X197132380Y-99004285D02*
X196132380Y-99004285D01*
X196132380Y-98623333D01*
X196180000Y-98528095D01*
X196227619Y-98480476D01*
X196322857Y-98432857D01*
X196465714Y-98432857D01*
X196560952Y-98480476D01*
X196608571Y-98528095D01*
X196656190Y-98623333D01*
X196656190Y-99004285D01*
X197132380Y-97480476D02*
X197132380Y-98051904D01*
X197132380Y-97766190D02*
X196132380Y-97766190D01*
X196275238Y-97861428D01*
X196370476Y-97956666D01*
X196418095Y-98051904D01*
X196132380Y-96623333D02*
X196132380Y-96813809D01*
X196180000Y-96909047D01*
X196227619Y-96956666D01*
X196370476Y-97051904D01*
X196560952Y-97099523D01*
X196941904Y-97099523D01*
X197037142Y-97051904D01*
X197084761Y-97004285D01*
X197132380Y-96909047D01*
X197132380Y-96718571D01*
X197084761Y-96623333D01*
X197037142Y-96575714D01*
X196941904Y-96528095D01*
X196703809Y-96528095D01*
X196608571Y-96575714D01*
X196560952Y-96623333D01*
X196513333Y-96718571D01*
X196513333Y-96909047D01*
X196560952Y-97004285D01*
X196608571Y-97051904D01*
X196703809Y-97099523D01*
%TO.C,R15*%
X155567142Y-122202380D02*
X155233809Y-121726190D01*
X154995714Y-122202380D02*
X154995714Y-121202380D01*
X155376666Y-121202380D01*
X155471904Y-121250000D01*
X155519523Y-121297619D01*
X155567142Y-121392857D01*
X155567142Y-121535714D01*
X155519523Y-121630952D01*
X155471904Y-121678571D01*
X155376666Y-121726190D01*
X154995714Y-121726190D01*
X156519523Y-122202380D02*
X155948095Y-122202380D01*
X156233809Y-122202380D02*
X156233809Y-121202380D01*
X156138571Y-121345238D01*
X156043333Y-121440476D01*
X155948095Y-121488095D01*
X157424285Y-121202380D02*
X156948095Y-121202380D01*
X156900476Y-121678571D01*
X156948095Y-121630952D01*
X157043333Y-121583333D01*
X157281428Y-121583333D01*
X157376666Y-121630952D01*
X157424285Y-121678571D01*
X157471904Y-121773809D01*
X157471904Y-122011904D01*
X157424285Y-122107142D01*
X157376666Y-122154761D01*
X157281428Y-122202380D01*
X157043333Y-122202380D01*
X156948095Y-122154761D01*
X156900476Y-122107142D01*
%TO.C,R14*%
X197132380Y-88272857D02*
X196656190Y-88606190D01*
X197132380Y-88844285D02*
X196132380Y-88844285D01*
X196132380Y-88463333D01*
X196180000Y-88368095D01*
X196227619Y-88320476D01*
X196322857Y-88272857D01*
X196465714Y-88272857D01*
X196560952Y-88320476D01*
X196608571Y-88368095D01*
X196656190Y-88463333D01*
X196656190Y-88844285D01*
X197132380Y-87320476D02*
X197132380Y-87891904D01*
X197132380Y-87606190D02*
X196132380Y-87606190D01*
X196275238Y-87701428D01*
X196370476Y-87796666D01*
X196418095Y-87891904D01*
X196465714Y-86463333D02*
X197132380Y-86463333D01*
X196084761Y-86701428D02*
X196799047Y-86939523D01*
X196799047Y-86320476D01*
%TO.C,R13*%
X197132380Y-78112857D02*
X196656190Y-78446190D01*
X197132380Y-78684285D02*
X196132380Y-78684285D01*
X196132380Y-78303333D01*
X196180000Y-78208095D01*
X196227619Y-78160476D01*
X196322857Y-78112857D01*
X196465714Y-78112857D01*
X196560952Y-78160476D01*
X196608571Y-78208095D01*
X196656190Y-78303333D01*
X196656190Y-78684285D01*
X197132380Y-77160476D02*
X197132380Y-77731904D01*
X197132380Y-77446190D02*
X196132380Y-77446190D01*
X196275238Y-77541428D01*
X196370476Y-77636666D01*
X196418095Y-77731904D01*
X196132380Y-76827142D02*
X196132380Y-76208095D01*
X196513333Y-76541428D01*
X196513333Y-76398571D01*
X196560952Y-76303333D01*
X196608571Y-76255714D01*
X196703809Y-76208095D01*
X196941904Y-76208095D01*
X197037142Y-76255714D01*
X197084761Y-76303333D01*
X197132380Y-76398571D01*
X197132380Y-76684285D01*
X197084761Y-76779523D01*
X197037142Y-76827142D01*
%TO.C,R12*%
X156837142Y-87912380D02*
X156503809Y-87436190D01*
X156265714Y-87912380D02*
X156265714Y-86912380D01*
X156646666Y-86912380D01*
X156741904Y-86960000D01*
X156789523Y-87007619D01*
X156837142Y-87102857D01*
X156837142Y-87245714D01*
X156789523Y-87340952D01*
X156741904Y-87388571D01*
X156646666Y-87436190D01*
X156265714Y-87436190D01*
X157789523Y-87912380D02*
X157218095Y-87912380D01*
X157503809Y-87912380D02*
X157503809Y-86912380D01*
X157408571Y-87055238D01*
X157313333Y-87150476D01*
X157218095Y-87198095D01*
X158170476Y-87007619D02*
X158218095Y-86960000D01*
X158313333Y-86912380D01*
X158551428Y-86912380D01*
X158646666Y-86960000D01*
X158694285Y-87007619D01*
X158741904Y-87102857D01*
X158741904Y-87198095D01*
X158694285Y-87340952D01*
X158122857Y-87912380D01*
X158741904Y-87912380D01*
%TO.C,R11*%
X156837142Y-75552380D02*
X156503809Y-75076190D01*
X156265714Y-75552380D02*
X156265714Y-74552380D01*
X156646666Y-74552380D01*
X156741904Y-74600000D01*
X156789523Y-74647619D01*
X156837142Y-74742857D01*
X156837142Y-74885714D01*
X156789523Y-74980952D01*
X156741904Y-75028571D01*
X156646666Y-75076190D01*
X156265714Y-75076190D01*
X157789523Y-75552380D02*
X157218095Y-75552380D01*
X157503809Y-75552380D02*
X157503809Y-74552380D01*
X157408571Y-74695238D01*
X157313333Y-74790476D01*
X157218095Y-74838095D01*
X158741904Y-75552380D02*
X158170476Y-75552380D01*
X158456190Y-75552380D02*
X158456190Y-74552380D01*
X158360952Y-74695238D01*
X158265714Y-74790476D01*
X158170476Y-74838095D01*
%TO.C,R10*%
X156837142Y-84102380D02*
X156503809Y-83626190D01*
X156265714Y-84102380D02*
X156265714Y-83102380D01*
X156646666Y-83102380D01*
X156741904Y-83150000D01*
X156789523Y-83197619D01*
X156837142Y-83292857D01*
X156837142Y-83435714D01*
X156789523Y-83530952D01*
X156741904Y-83578571D01*
X156646666Y-83626190D01*
X156265714Y-83626190D01*
X157789523Y-84102380D02*
X157218095Y-84102380D01*
X157503809Y-84102380D02*
X157503809Y-83102380D01*
X157408571Y-83245238D01*
X157313333Y-83340476D01*
X157218095Y-83388095D01*
X158408571Y-83102380D02*
X158503809Y-83102380D01*
X158599047Y-83150000D01*
X158646666Y-83197619D01*
X158694285Y-83292857D01*
X158741904Y-83483333D01*
X158741904Y-83721428D01*
X158694285Y-83911904D01*
X158646666Y-84007142D01*
X158599047Y-84054761D01*
X158503809Y-84102380D01*
X158408571Y-84102380D01*
X158313333Y-84054761D01*
X158265714Y-84007142D01*
X158218095Y-83911904D01*
X158170476Y-83721428D01*
X158170476Y-83483333D01*
X158218095Y-83292857D01*
X158265714Y-83197619D01*
X158313333Y-83150000D01*
X158408571Y-83102380D01*
%TO.C,R9*%
X196683333Y-59042380D02*
X196350000Y-58566190D01*
X196111904Y-59042380D02*
X196111904Y-58042380D01*
X196492857Y-58042380D01*
X196588095Y-58090000D01*
X196635714Y-58137619D01*
X196683333Y-58232857D01*
X196683333Y-58375714D01*
X196635714Y-58470952D01*
X196588095Y-58518571D01*
X196492857Y-58566190D01*
X196111904Y-58566190D01*
X197159523Y-59042380D02*
X197350000Y-59042380D01*
X197445238Y-58994761D01*
X197492857Y-58947142D01*
X197588095Y-58804285D01*
X197635714Y-58613809D01*
X197635714Y-58232857D01*
X197588095Y-58137619D01*
X197540476Y-58090000D01*
X197445238Y-58042380D01*
X197254761Y-58042380D01*
X197159523Y-58090000D01*
X197111904Y-58137619D01*
X197064285Y-58232857D01*
X197064285Y-58470952D01*
X197111904Y-58566190D01*
X197159523Y-58613809D01*
X197254761Y-58661428D01*
X197445238Y-58661428D01*
X197540476Y-58613809D01*
X197588095Y-58566190D01*
X197635714Y-58470952D01*
%TO.C,R8*%
X130162380Y-94146666D02*
X129686190Y-94480000D01*
X130162380Y-94718095D02*
X129162380Y-94718095D01*
X129162380Y-94337142D01*
X129210000Y-94241904D01*
X129257619Y-94194285D01*
X129352857Y-94146666D01*
X129495714Y-94146666D01*
X129590952Y-94194285D01*
X129638571Y-94241904D01*
X129686190Y-94337142D01*
X129686190Y-94718095D01*
X129590952Y-93575238D02*
X129543333Y-93670476D01*
X129495714Y-93718095D01*
X129400476Y-93765714D01*
X129352857Y-93765714D01*
X129257619Y-93718095D01*
X129210000Y-93670476D01*
X129162380Y-93575238D01*
X129162380Y-93384761D01*
X129210000Y-93289523D01*
X129257619Y-93241904D01*
X129352857Y-93194285D01*
X129400476Y-93194285D01*
X129495714Y-93241904D01*
X129543333Y-93289523D01*
X129590952Y-93384761D01*
X129590952Y-93575238D01*
X129638571Y-93670476D01*
X129686190Y-93718095D01*
X129781428Y-93765714D01*
X129971904Y-93765714D01*
X130067142Y-93718095D01*
X130114761Y-93670476D01*
X130162380Y-93575238D01*
X130162380Y-93384761D01*
X130114761Y-93289523D01*
X130067142Y-93241904D01*
X129971904Y-93194285D01*
X129781428Y-93194285D01*
X129686190Y-93241904D01*
X129638571Y-93289523D01*
X129590952Y-93384761D01*
%TO.C,R7*%
X133972380Y-94146666D02*
X133496190Y-94480000D01*
X133972380Y-94718095D02*
X132972380Y-94718095D01*
X132972380Y-94337142D01*
X133020000Y-94241904D01*
X133067619Y-94194285D01*
X133162857Y-94146666D01*
X133305714Y-94146666D01*
X133400952Y-94194285D01*
X133448571Y-94241904D01*
X133496190Y-94337142D01*
X133496190Y-94718095D01*
X132972380Y-93813333D02*
X132972380Y-93146666D01*
X133972380Y-93575238D01*
%TO.C,R6*%
X183983333Y-131092380D02*
X183650000Y-130616190D01*
X183411904Y-131092380D02*
X183411904Y-130092380D01*
X183792857Y-130092380D01*
X183888095Y-130140000D01*
X183935714Y-130187619D01*
X183983333Y-130282857D01*
X183983333Y-130425714D01*
X183935714Y-130520952D01*
X183888095Y-130568571D01*
X183792857Y-130616190D01*
X183411904Y-130616190D01*
X184840476Y-130092380D02*
X184650000Y-130092380D01*
X184554761Y-130140000D01*
X184507142Y-130187619D01*
X184411904Y-130330476D01*
X184364285Y-130520952D01*
X184364285Y-130901904D01*
X184411904Y-130997142D01*
X184459523Y-131044761D01*
X184554761Y-131092380D01*
X184745238Y-131092380D01*
X184840476Y-131044761D01*
X184888095Y-130997142D01*
X184935714Y-130901904D01*
X184935714Y-130663809D01*
X184888095Y-130568571D01*
X184840476Y-130520952D01*
X184745238Y-130473333D01*
X184554761Y-130473333D01*
X184459523Y-130520952D01*
X184411904Y-130568571D01*
X184364285Y-130663809D01*
%TO.C,R5*%
X153503333Y-123812380D02*
X153170000Y-123336190D01*
X152931904Y-123812380D02*
X152931904Y-122812380D01*
X153312857Y-122812380D01*
X153408095Y-122860000D01*
X153455714Y-122907619D01*
X153503333Y-123002857D01*
X153503333Y-123145714D01*
X153455714Y-123240952D01*
X153408095Y-123288571D01*
X153312857Y-123336190D01*
X152931904Y-123336190D01*
X154408095Y-122812380D02*
X153931904Y-122812380D01*
X153884285Y-123288571D01*
X153931904Y-123240952D01*
X154027142Y-123193333D01*
X154265238Y-123193333D01*
X154360476Y-123240952D01*
X154408095Y-123288571D01*
X154455714Y-123383809D01*
X154455714Y-123621904D01*
X154408095Y-123717142D01*
X154360476Y-123764761D01*
X154265238Y-123812380D01*
X154027142Y-123812380D01*
X153931904Y-123764761D01*
X153884285Y-123717142D01*
%TO.C,R4*%
X143343333Y-123812380D02*
X143010000Y-123336190D01*
X142771904Y-123812380D02*
X142771904Y-122812380D01*
X143152857Y-122812380D01*
X143248095Y-122860000D01*
X143295714Y-122907619D01*
X143343333Y-123002857D01*
X143343333Y-123145714D01*
X143295714Y-123240952D01*
X143248095Y-123288571D01*
X143152857Y-123336190D01*
X142771904Y-123336190D01*
X144200476Y-123145714D02*
X144200476Y-123812380D01*
X143962380Y-122764761D02*
X143724285Y-123479047D01*
X144343333Y-123479047D01*
%TO.C,R3*%
X133183333Y-123812380D02*
X132850000Y-123336190D01*
X132611904Y-123812380D02*
X132611904Y-122812380D01*
X132992857Y-122812380D01*
X133088095Y-122860000D01*
X133135714Y-122907619D01*
X133183333Y-123002857D01*
X133183333Y-123145714D01*
X133135714Y-123240952D01*
X133088095Y-123288571D01*
X132992857Y-123336190D01*
X132611904Y-123336190D01*
X133516666Y-122812380D02*
X134135714Y-122812380D01*
X133802380Y-123193333D01*
X133945238Y-123193333D01*
X134040476Y-123240952D01*
X134088095Y-123288571D01*
X134135714Y-123383809D01*
X134135714Y-123621904D01*
X134088095Y-123717142D01*
X134040476Y-123764761D01*
X133945238Y-123812380D01*
X133659523Y-123812380D01*
X133564285Y-123764761D01*
X133516666Y-123717142D01*
%TO.C,R2*%
X123023333Y-123812380D02*
X122690000Y-123336190D01*
X122451904Y-123812380D02*
X122451904Y-122812380D01*
X122832857Y-122812380D01*
X122928095Y-122860000D01*
X122975714Y-122907619D01*
X123023333Y-123002857D01*
X123023333Y-123145714D01*
X122975714Y-123240952D01*
X122928095Y-123288571D01*
X122832857Y-123336190D01*
X122451904Y-123336190D01*
X123404285Y-122907619D02*
X123451904Y-122860000D01*
X123547142Y-122812380D01*
X123785238Y-122812380D01*
X123880476Y-122860000D01*
X123928095Y-122907619D01*
X123975714Y-123002857D01*
X123975714Y-123098095D01*
X123928095Y-123240952D01*
X123356666Y-123812380D01*
X123975714Y-123812380D01*
%TO.C,R1*%
X112863333Y-123812380D02*
X112530000Y-123336190D01*
X112291904Y-123812380D02*
X112291904Y-122812380D01*
X112672857Y-122812380D01*
X112768095Y-122860000D01*
X112815714Y-122907619D01*
X112863333Y-123002857D01*
X112863333Y-123145714D01*
X112815714Y-123240952D01*
X112768095Y-123288571D01*
X112672857Y-123336190D01*
X112291904Y-123336190D01*
X113815714Y-123812380D02*
X113244285Y-123812380D01*
X113530000Y-123812380D02*
X113530000Y-122812380D01*
X113434761Y-122955238D01*
X113339523Y-123050476D01*
X113244285Y-123098095D01*
%TO.C,JP2*%
X155376666Y-115552380D02*
X155376666Y-116266666D01*
X155329047Y-116409523D01*
X155233809Y-116504761D01*
X155090952Y-116552380D01*
X154995714Y-116552380D01*
X155852857Y-116552380D02*
X155852857Y-115552380D01*
X156233809Y-115552380D01*
X156329047Y-115600000D01*
X156376666Y-115647619D01*
X156424285Y-115742857D01*
X156424285Y-115885714D01*
X156376666Y-115980952D01*
X156329047Y-116028571D01*
X156233809Y-116076190D01*
X155852857Y-116076190D01*
X156805238Y-115647619D02*
X156852857Y-115600000D01*
X156948095Y-115552380D01*
X157186190Y-115552380D01*
X157281428Y-115600000D01*
X157329047Y-115647619D01*
X157376666Y-115742857D01*
X157376666Y-115838095D01*
X157329047Y-115980952D01*
X156757619Y-116552380D01*
X157376666Y-116552380D01*
%TO.C,JP1*%
X135676666Y-99252380D02*
X135676666Y-99966666D01*
X135629047Y-100109523D01*
X135533809Y-100204761D01*
X135390952Y-100252380D01*
X135295714Y-100252380D01*
X136152857Y-100252380D02*
X136152857Y-99252380D01*
X136533809Y-99252380D01*
X136629047Y-99300000D01*
X136676666Y-99347619D01*
X136724285Y-99442857D01*
X136724285Y-99585714D01*
X136676666Y-99680952D01*
X136629047Y-99728571D01*
X136533809Y-99776190D01*
X136152857Y-99776190D01*
X137676666Y-100252380D02*
X137105238Y-100252380D01*
X137390952Y-100252380D02*
X137390952Y-99252380D01*
X137295714Y-99395238D01*
X137200476Y-99490476D01*
X137105238Y-99538095D01*
%TO.C,D10*%
X151185714Y-95852380D02*
X151185714Y-94852380D01*
X151423809Y-94852380D01*
X151566666Y-94900000D01*
X151661904Y-94995238D01*
X151709523Y-95090476D01*
X151757142Y-95280952D01*
X151757142Y-95423809D01*
X151709523Y-95614285D01*
X151661904Y-95709523D01*
X151566666Y-95804761D01*
X151423809Y-95852380D01*
X151185714Y-95852380D01*
X152709523Y-95852380D02*
X152138095Y-95852380D01*
X152423809Y-95852380D02*
X152423809Y-94852380D01*
X152328571Y-94995238D01*
X152233333Y-95090476D01*
X152138095Y-95138095D01*
X153328571Y-94852380D02*
X153423809Y-94852380D01*
X153519047Y-94900000D01*
X153566666Y-94947619D01*
X153614285Y-95042857D01*
X153661904Y-95233333D01*
X153661904Y-95471428D01*
X153614285Y-95661904D01*
X153566666Y-95757142D01*
X153519047Y-95804761D01*
X153423809Y-95852380D01*
X153328571Y-95852380D01*
X153233333Y-95804761D01*
X153185714Y-95757142D01*
X153138095Y-95661904D01*
X153090476Y-95471428D01*
X153090476Y-95233333D01*
X153138095Y-95042857D01*
X153185714Y-94947619D01*
X153233333Y-94900000D01*
X153328571Y-94852380D01*
%TO.C,D9*%
X207612380Y-123928095D02*
X206612380Y-123928095D01*
X206612380Y-123690000D01*
X206660000Y-123547142D01*
X206755238Y-123451904D01*
X206850476Y-123404285D01*
X207040952Y-123356666D01*
X207183809Y-123356666D01*
X207374285Y-123404285D01*
X207469523Y-123451904D01*
X207564761Y-123547142D01*
X207612380Y-123690000D01*
X207612380Y-123928095D01*
X207612380Y-122880476D02*
X207612380Y-122690000D01*
X207564761Y-122594761D01*
X207517142Y-122547142D01*
X207374285Y-122451904D01*
X207183809Y-122404285D01*
X206802857Y-122404285D01*
X206707619Y-122451904D01*
X206660000Y-122499523D01*
X206612380Y-122594761D01*
X206612380Y-122785238D01*
X206660000Y-122880476D01*
X206707619Y-122928095D01*
X206802857Y-122975714D01*
X207040952Y-122975714D01*
X207136190Y-122928095D01*
X207183809Y-122880476D01*
X207231428Y-122785238D01*
X207231428Y-122594761D01*
X207183809Y-122499523D01*
X207136190Y-122451904D01*
X207040952Y-122404285D01*
%TO.C,D7*%
X207612380Y-113768095D02*
X206612380Y-113768095D01*
X206612380Y-113530000D01*
X206660000Y-113387142D01*
X206755238Y-113291904D01*
X206850476Y-113244285D01*
X207040952Y-113196666D01*
X207183809Y-113196666D01*
X207374285Y-113244285D01*
X207469523Y-113291904D01*
X207564761Y-113387142D01*
X207612380Y-113530000D01*
X207612380Y-113768095D01*
X206612380Y-112863333D02*
X206612380Y-112196666D01*
X207612380Y-112625238D01*
%TO.C,D6*%
X207612380Y-103608095D02*
X206612380Y-103608095D01*
X206612380Y-103370000D01*
X206660000Y-103227142D01*
X206755238Y-103131904D01*
X206850476Y-103084285D01*
X207040952Y-103036666D01*
X207183809Y-103036666D01*
X207374285Y-103084285D01*
X207469523Y-103131904D01*
X207564761Y-103227142D01*
X207612380Y-103370000D01*
X207612380Y-103608095D01*
X206612380Y-102179523D02*
X206612380Y-102370000D01*
X206660000Y-102465238D01*
X206707619Y-102512857D01*
X206850476Y-102608095D01*
X207040952Y-102655714D01*
X207421904Y-102655714D01*
X207517142Y-102608095D01*
X207564761Y-102560476D01*
X207612380Y-102465238D01*
X207612380Y-102274761D01*
X207564761Y-102179523D01*
X207517142Y-102131904D01*
X207421904Y-102084285D01*
X207183809Y-102084285D01*
X207088571Y-102131904D01*
X207040952Y-102179523D01*
X206993333Y-102274761D01*
X206993333Y-102465238D01*
X207040952Y-102560476D01*
X207088571Y-102608095D01*
X207183809Y-102655714D01*
%TO.C,D5*%
X207612380Y-93448095D02*
X206612380Y-93448095D01*
X206612380Y-93210000D01*
X206660000Y-93067142D01*
X206755238Y-92971904D01*
X206850476Y-92924285D01*
X207040952Y-92876666D01*
X207183809Y-92876666D01*
X207374285Y-92924285D01*
X207469523Y-92971904D01*
X207564761Y-93067142D01*
X207612380Y-93210000D01*
X207612380Y-93448095D01*
X206612380Y-91971904D02*
X206612380Y-92448095D01*
X207088571Y-92495714D01*
X207040952Y-92448095D01*
X206993333Y-92352857D01*
X206993333Y-92114761D01*
X207040952Y-92019523D01*
X207088571Y-91971904D01*
X207183809Y-91924285D01*
X207421904Y-91924285D01*
X207517142Y-91971904D01*
X207564761Y-92019523D01*
X207612380Y-92114761D01*
X207612380Y-92352857D01*
X207564761Y-92448095D01*
X207517142Y-92495714D01*
%TO.C,D4*%
X160551904Y-58722380D02*
X160551904Y-57722380D01*
X160790000Y-57722380D01*
X160932857Y-57770000D01*
X161028095Y-57865238D01*
X161075714Y-57960476D01*
X161123333Y-58150952D01*
X161123333Y-58293809D01*
X161075714Y-58484285D01*
X161028095Y-58579523D01*
X160932857Y-58674761D01*
X160790000Y-58722380D01*
X160551904Y-58722380D01*
X161980476Y-58055714D02*
X161980476Y-58722380D01*
X161742380Y-57674761D02*
X161504285Y-58389047D01*
X162123333Y-58389047D01*
%TO.C,D3*%
X207612380Y-83288095D02*
X206612380Y-83288095D01*
X206612380Y-83050000D01*
X206660000Y-82907142D01*
X206755238Y-82811904D01*
X206850476Y-82764285D01*
X207040952Y-82716666D01*
X207183809Y-82716666D01*
X207374285Y-82764285D01*
X207469523Y-82811904D01*
X207564761Y-82907142D01*
X207612380Y-83050000D01*
X207612380Y-83288095D01*
X206612380Y-82383333D02*
X206612380Y-81764285D01*
X206993333Y-82097619D01*
X206993333Y-81954761D01*
X207040952Y-81859523D01*
X207088571Y-81811904D01*
X207183809Y-81764285D01*
X207421904Y-81764285D01*
X207517142Y-81811904D01*
X207564761Y-81859523D01*
X207612380Y-81954761D01*
X207612380Y-82240476D01*
X207564761Y-82335714D01*
X207517142Y-82383333D01*
%TO.C,D2*%
X207612380Y-73128095D02*
X206612380Y-73128095D01*
X206612380Y-72890000D01*
X206660000Y-72747142D01*
X206755238Y-72651904D01*
X206850476Y-72604285D01*
X207040952Y-72556666D01*
X207183809Y-72556666D01*
X207374285Y-72604285D01*
X207469523Y-72651904D01*
X207564761Y-72747142D01*
X207612380Y-72890000D01*
X207612380Y-73128095D01*
X206707619Y-72175714D02*
X206660000Y-72128095D01*
X206612380Y-72032857D01*
X206612380Y-71794761D01*
X206660000Y-71699523D01*
X206707619Y-71651904D01*
X206802857Y-71604285D01*
X206898095Y-71604285D01*
X207040952Y-71651904D01*
X207612380Y-72223333D01*
X207612380Y-71604285D01*
%TO.C,D1*%
X170482380Y-127738095D02*
X169482380Y-127738095D01*
X169482380Y-127500000D01*
X169530000Y-127357142D01*
X169625238Y-127261904D01*
X169720476Y-127214285D01*
X169910952Y-127166666D01*
X170053809Y-127166666D01*
X170244285Y-127214285D01*
X170339523Y-127261904D01*
X170434761Y-127357142D01*
X170482380Y-127500000D01*
X170482380Y-127738095D01*
X170482380Y-126214285D02*
X170482380Y-126785714D01*
X170482380Y-126500000D02*
X169482380Y-126500000D01*
X169625238Y-126595238D01*
X169720476Y-126690476D01*
X169768095Y-126785714D01*
%TO.C,C3*%
X133453333Y-72687142D02*
X133405714Y-72734761D01*
X133262857Y-72782380D01*
X133167619Y-72782380D01*
X133024761Y-72734761D01*
X132929523Y-72639523D01*
X132881904Y-72544285D01*
X132834285Y-72353809D01*
X132834285Y-72210952D01*
X132881904Y-72020476D01*
X132929523Y-71925238D01*
X133024761Y-71830000D01*
X133167619Y-71782380D01*
X133262857Y-71782380D01*
X133405714Y-71830000D01*
X133453333Y-71877619D01*
X133786666Y-71782380D02*
X134405714Y-71782380D01*
X134072380Y-72163333D01*
X134215238Y-72163333D01*
X134310476Y-72210952D01*
X134358095Y-72258571D01*
X134405714Y-72353809D01*
X134405714Y-72591904D01*
X134358095Y-72687142D01*
X134310476Y-72734761D01*
X134215238Y-72782380D01*
X133929523Y-72782380D01*
X133834285Y-72734761D01*
X133786666Y-72687142D01*
%TO.C,C2*%
X143927142Y-67746666D02*
X143974761Y-67794285D01*
X144022380Y-67937142D01*
X144022380Y-68032380D01*
X143974761Y-68175238D01*
X143879523Y-68270476D01*
X143784285Y-68318095D01*
X143593809Y-68365714D01*
X143450952Y-68365714D01*
X143260476Y-68318095D01*
X143165238Y-68270476D01*
X143070000Y-68175238D01*
X143022380Y-68032380D01*
X143022380Y-67937142D01*
X143070000Y-67794285D01*
X143117619Y-67746666D01*
X143117619Y-67365714D02*
X143070000Y-67318095D01*
X143022380Y-67222857D01*
X143022380Y-66984761D01*
X143070000Y-66889523D01*
X143117619Y-66841904D01*
X143212857Y-66794285D01*
X143308095Y-66794285D01*
X143450952Y-66841904D01*
X144022380Y-67413333D01*
X144022380Y-66794285D01*
%TO.C,C1*%
X133453333Y-66337142D02*
X133405714Y-66384761D01*
X133262857Y-66432380D01*
X133167619Y-66432380D01*
X133024761Y-66384761D01*
X132929523Y-66289523D01*
X132881904Y-66194285D01*
X132834285Y-66003809D01*
X132834285Y-65860952D01*
X132881904Y-65670476D01*
X132929523Y-65575238D01*
X133024761Y-65480000D01*
X133167619Y-65432380D01*
X133262857Y-65432380D01*
X133405714Y-65480000D01*
X133453333Y-65527619D01*
X134405714Y-66432380D02*
X133834285Y-66432380D01*
X134120000Y-66432380D02*
X134120000Y-65432380D01*
X134024761Y-65575238D01*
X133929523Y-65670476D01*
X133834285Y-65718095D01*
%TD*%
M02*
